<svg version="1.1" viewBox="0.0 0.0 985.0 610.0" fill="none" stroke="none" stroke-linecap="square" stroke-miterlimit="10" width="985" height="610" xmlns:xlink="http://www.w3.org/1999/xlink" xmlns="http://www.w3.org/2000/svg"><path fill="#ffffff" d="M0 0L985.0 0L985.0 610.0L0 610.0L0 0Z" fill-rule="nonzero"/><path stroke="#cccccc" stroke-width="1.0" stroke-linecap="butt" d="M72.5 117.5L72.5 558.5" fill-rule="nonzero"/><path stroke="#cccccc" stroke-width="1.0" stroke-linecap="butt" d="M266.5 117.5L266.5 558.5" fill-rule="nonzero"/><path stroke="#cccccc" stroke-width="1.0" stroke-linecap="butt" d="M460.5 117.5L460.5 558.5" fill-rule="nonzero"/><path stroke="#cccccc" stroke-width="1.0" stroke-linecap="butt" d="M657.5 117.5L657.5 558.5" fill-rule="nonzero"/><path stroke="#cccccc" stroke-width="1.0" stroke-linecap="butt" d="M852.5 117.5L852.5 558.5" fill-rule="nonzero"/><path stroke="#cccccc" stroke-width="1.0" stroke-linecap="butt" d="M65.5 558.5L954.5 558.5" fill-rule="nonzero"/><path stroke="#333333" stroke-width="1.0" stroke-linecap="butt" d="M65.5 448.5L954.5 448.5" fill-rule="nonzero"/><path stroke="#cccccc" stroke-width="1.0" stroke-linecap="butt" d="M65.5 338.5L954.5 338.5" fill-rule="nonzero"/><path stroke="#cccccc" stroke-width="1.0" stroke-linecap="butt" d="M65.5 227.5L954.5 227.5" fill-rule="nonzero"/><path stroke="#cccccc" stroke-width="1.0" stroke-linecap="butt" d="M65.5 117.5L954.5 117.5" fill-rule="nonzero"/><clipPath id="id_0"><path d="M65.5 117.666664L954.5 117.666664L954.5 558.5L65.5 558.5L65.5 117.666664Z" clip-rule="nonzero"/></clipPath><path stroke="#21759b" stroke-width="2.0" stroke-linecap="butt" clip-path="url(#id_0)" d="M72.39147 227.875L171.0523 271.95834L266.53052 271.95834L365.19135 316.04166L460.6696 227.875L559.33044 316.04166L657.9913 360.125L753.4695 404.20834L852.1303 360.125L947.6085 360.125" fill-rule="nonzero"/><path stroke="#92013b" stroke-width="2.0" stroke-linecap="butt" clip-path="url(#id_0)" d="M72.39147 271.95834L171.0523 316.04166L266.53052 360.125L365.19135 316.04166L460.6696 271.95834L559.33044 316.04166L657.9913 360.125L753.4695 316.04166L852.1303 316.04166L947.6085 360.125" fill-rule="nonzero"/><path stroke="#58bb8a" stroke-width="2.0" stroke-linecap="butt" clip-path="url(#id_0)" d="M72.39147 404.20834L171.0523 404.20834L266.53052 360.125L365.19135 448.29166L460.6696 404.20834L559.33044 448.29166L657.9913 448.29166L753.4695 536.4583L852.1303 492.375L947.6085 448.29166" fill-rule="nonzero"/><path fill="#21759b" clip-path="url(#id_0)" d="M76.89147 227.875C76.89147 230.36028 74.876755 232.375 72.39147 232.375C69.90619 232.375 67.89147 230.36028 67.89147 227.875C67.89147 225.38972 69.90619 223.375 72.39147 223.375C74.876755 223.375 76.89147 225.38972 76.89147 227.875Z" fill-rule="nonzero"/><path fill="#21759b" clip-path="url(#id_0)" d="M175.5523 271.95834C175.5523 274.4436 173.53758 276.45834 171.0523 276.45834C168.56702 276.45834 166.5523 274.4436 166.5523 271.95834C166.5523 269.47305 168.56702 267.45834 171.0523 267.45834C173.53758 267.45834 175.5523 269.47305 175.5523 271.95834Z" fill-rule="nonzero"/><path fill="#21759b" clip-path="url(#id_0)" d="M271.03052 271.95834C271.03052 274.4436 269.0158 276.45834 266.53052 276.45834C264.04526 276.45834 262.03052 274.4436 262.03052 271.95834C262.03052 269.47305 264.04526 267.45834 266.53052 267.45834C269.0158 267.45834 271.03052 269.47305 271.03052 271.95834Z" fill-rule="nonzero"/><path fill="#21759b" clip-path="url(#id_0)" d="M369.69135 316.04166C369.69135 318.52695 367.67664 320.54166 365.19135 320.54166C362.7061 320.54166 360.69135 318.52695 360.69135 316.04166C360.69135 313.5564 362.7061 311.54166 365.19135 311.54166C367.67664 311.54166 369.69135 313.5564 369.69135 316.04166Z" fill-rule="nonzero"/><path fill="#21759b" clip-path="url(#id_0)" d="M465.1696 227.875C465.1696 230.36028 463.15488 232.375 460.6696 232.375C458.1843 232.375 456.1696 230.36028 456.1696 227.875C456.1696 225.38972 458.1843 223.375 460.6696 223.375C463.15488 223.375 465.1696 225.38972 465.1696 227.875Z" fill-rule="nonzero"/><path fill="#21759b" clip-path="url(#id_0)" d="M563.83044 316.04166C563.83044 318.52695 561.8157 320.54166 559.33044 320.54166C556.84515 320.54166 554.83044 318.52695 554.83044 316.04166C554.83044 313.5564 556.84515 311.54166 559.33044 311.54166C561.8157 311.54166 563.83044 313.5564 563.83044 316.04166Z" fill-rule="nonzero"/><path fill="#21759b" clip-path="url(#id_0)" d="M662.4913 360.125C662.4913 362.6103 660.4765 364.625 657.9913 364.625C655.506 364.625 653.4913 362.6103 653.4913 360.125C653.4913 357.6397 655.506 355.625 657.9913 355.625C660.4765 355.625 662.4913 357.6397 662.4913 360.125Z" fill-rule="nonzero"/><path fill="#21759b" clip-path="url(#id_0)" d="M757.9695 404.20834C757.9695 406.6936 755.9548 408.70834 753.4695 408.70834C750.9842 408.70834 748.9695 406.6936 748.9695 404.20834C748.9695 401.72305 750.9842 399.70834 753.4695 399.70834C755.9548 399.70834 757.9695 401.72305 757.9695 404.20834Z" fill-rule="nonzero"/><path fill="#21759b" clip-path="url(#id_0)" d="M856.6303 360.125C856.6303 362.6103 854.6156 364.625 852.1303 364.625C849.645 364.625 847.6303 362.6103 847.6303 360.125C847.6303 357.6397 849.645 355.625 852.1303 355.625C854.6156 355.625 856.6303 357.6397 856.6303 360.125Z" fill-rule="nonzero"/><path fill="#21759b" clip-path="url(#id_0)" d="M952.1085 360.125C952.1085 362.6103 950.0938 364.625 947.6085 364.625C945.1232 364.625 943.1085 362.6103 943.1085 360.125C943.1085 357.6397 945.1232 355.625 947.6085 355.625C950.0938 355.625 952.1085 357.6397 952.1085 360.125Z" fill-rule="nonzero"/><path fill="#92013b" clip-path="url(#id_0)" d="M76.89147 271.95834C76.89147 274.4436 74.876755 276.45834 72.39147 276.45834C69.90619 276.45834 67.89147 274.4436 67.89147 271.95834C67.89147 269.47305 69.90619 267.45834 72.39147 267.45834C74.876755 267.45834 76.89147 269.47305 76.89147 271.95834Z" fill-rule="nonzero"/><path fill="#92013b" clip-path="url(#id_0)" d="M175.5523 316.04166C175.5523 318.52695 173.53758 320.54166 171.0523 320.54166C168.56702 320.54166 166.5523 318.52695 166.5523 316.04166C166.5523 313.5564 168.56702 311.54166 171.0523 311.54166C173.53758 311.54166 175.5523 313.5564 175.5523 316.04166Z" fill-rule="nonzero"/><path fill="#92013b" clip-path="url(#id_0)" d="M271.03052 360.125C271.03052 362.6103 269.0158 364.625 266.53052 364.625C264.04526 364.625 262.03052 362.6103 262.03052 360.125C262.03052 357.6397 264.04526 355.625 266.53052 355.625C269.0158 355.625 271.03052 357.6397 271.03052 360.125Z" fill-rule="nonzero"/><path fill="#92013b" clip-path="url(#id_0)" d="M369.69135 316.04166C369.69135 318.52695 367.67664 320.54166 365.19135 320.54166C362.7061 320.54166 360.69135 318.52695 360.69135 316.04166C360.69135 313.5564 362.7061 311.54166 365.19135 311.54166C367.67664 311.54166 369.69135 313.5564 369.69135 316.04166Z" fill-rule="nonzero"/><path fill="#92013b" clip-path="url(#id_0)" d="M465.1696 271.95834C465.1696 274.4436 463.15488 276.45834 460.6696 276.45834C458.1843 276.45834 456.1696 274.4436 456.1696 271.95834C456.1696 269.47305 458.1843 267.45834 460.6696 267.45834C463.15488 267.45834 465.1696 269.47305 465.1696 271.95834Z" fill-rule="nonzero"/><path fill="#92013b" clip-path="url(#id_0)" d="M563.83044 316.04166C563.83044 318.52695 561.8157 320.54166 559.33044 320.54166C556.84515 320.54166 554.83044 318.52695 554.83044 316.04166C554.83044 313.5564 556.84515 311.54166 559.33044 311.54166C561.8157 311.54166 563.83044 313.5564 563.83044 316.04166Z" fill-rule="nonzero"/><path fill="#92013b" clip-path="url(#id_0)" d="M662.4913 360.125C662.4913 362.6103 660.4765 364.625 657.9913 364.625C655.506 364.625 653.4913 362.6103 653.4913 360.125C653.4913 357.6397 655.506 355.625 657.9913 355.625C660.4765 355.625 662.4913 357.6397 662.4913 360.125Z" fill-rule="nonzero"/><path fill="#92013b" clip-path="url(#id_0)" d="M757.9695 316.04166C757.9695 318.52695 755.9548 320.54166 753.4695 320.54166C750.9842 320.54166 748.9695 318.52695 748.9695 316.04166C748.9695 313.5564 750.9842 311.54166 753.4695 311.54166C755.9548 311.54166 757.9695 313.5564 757.9695 316.04166Z" fill-rule="nonzero"/><path fill="#92013b" clip-path="url(#id_0)" d="M856.6303 316.04166C856.6303 318.52695 854.6156 320.54166 852.1303 320.54166C849.645 320.54166 847.6303 318.52695 847.6303 316.04166C847.6303 313.5564 849.645 311.54166 852.1303 311.54166C854.6156 311.54166 856.6303 313.5564 856.6303 316.04166Z" fill-rule="nonzero"/><path fill="#92013b" clip-path="url(#id_0)" d="M952.1085 360.125C952.1085 362.6103 950.0938 364.625 947.6085 364.625C945.1232 364.625 943.1085 362.6103 943.1085 360.125C943.1085 357.6397 945.1232 355.625 947.6085 355.625C950.0938 355.625 952.1085 357.6397 952.1085 360.125Z" fill-rule="nonzero"/><path fill="#58bb8a" clip-path="url(#id_0)" d="M76.89147 404.20834C76.89147 406.6936 74.876755 408.70834 72.39147 408.70834C69.90619 408.70834 67.89147 406.6936 67.89147 404.20834C67.89147 401.72305 69.90619 399.70834 72.39147 399.70834C74.876755 399.70834 76.89147 401.72305 76.89147 404.20834Z" fill-rule="nonzero"/><path fill="#58bb8a" clip-path="url(#id_0)" d="M175.5523 404.20834C175.5523 406.6936 173.53758 408.70834 171.0523 408.70834C168.56702 408.70834 166.5523 406.6936 166.5523 404.20834C166.5523 401.72305 168.56702 399.70834 171.0523 399.70834C173.53758 399.70834 175.5523 401.72305 175.5523 404.20834Z" fill-rule="nonzero"/><path fill="#58bb8a" clip-path="url(#id_0)" d="M271.03052 360.125C271.03052 362.6103 269.0158 364.625 266.53052 364.625C264.04526 364.625 262.03052 362.6103 262.03052 360.125C262.03052 357.6397 264.04526 355.625 266.53052 355.625C269.0158 355.625 271.03052 357.6397 271.03052 360.125Z" fill-rule="nonzero"/><path fill="#58bb8a" clip-path="url(#id_0)" d="M369.69135 448.29166C369.69135 450.77695 367.67664 452.79166 365.19135 452.79166C362.7061 452.79166 360.69135 450.77695 360.69135 448.29166C360.69135 445.8064 362.7061 443.79166 365.19135 443.79166C367.67664 443.79166 369.69135 445.8064 369.69135 448.29166Z" fill-rule="nonzero"/><path fill="#58bb8a" clip-path="url(#id_0)" d="M465.1696 404.20834C465.1696 406.6936 463.15488 408.70834 460.6696 408.70834C458.1843 408.70834 456.1696 406.6936 456.1696 404.20834C456.1696 401.72305 458.1843 399.70834 460.6696 399.70834C463.15488 399.70834 465.1696 401.72305 465.1696 404.20834Z" fill-rule="nonzero"/><path fill="#58bb8a" clip-path="url(#id_0)" d="M563.83044 448.29166C563.83044 450.77695 561.8157 452.79166 559.33044 452.79166C556.84515 452.79166 554.83044 450.77695 554.83044 448.29166C554.83044 445.8064 556.84515 443.79166 559.33044 443.79166C561.8157 443.79166 563.83044 445.8064 563.83044 448.29166Z" fill-rule="nonzero"/><path fill="#58bb8a" clip-path="url(#id_0)" d="M662.4913 448.29166C662.4913 450.77695 660.4765 452.79166 657.9913 452.79166C655.506 452.79166 653.4913 450.77695 653.4913 448.29166C653.4913 445.8064 655.506 443.79166 657.9913 443.79166C660.4765 443.79166 662.4913 445.8064 662.4913 448.29166Z" fill-rule="nonzero"/><path fill="#58bb8a" clip-path="url(#id_0)" d="M757.9695 536.4583C757.9695 538.9436 755.9548 540.9583 753.4695 540.9583C750.9842 540.9583 748.9695 538.9436 748.9695 536.4583C748.9695 533.973 750.9842 531.9583 753.4695 531.9583C755.9548 531.9583 757.9695 533.973 757.9695 536.4583Z" fill-rule="nonzero"/><path fill="#58bb8a" clip-path="url(#id_0)" d="M856.6303 492.375C856.6303 494.8603 854.6156 496.875 852.1303 496.875C849.645 496.875 847.6303 494.8603 847.6303 492.375C847.6303 489.8897 849.645 487.875 852.1303 487.875C854.6156 487.875 856.6303 489.8897 856.6303 492.375Z" fill-rule="nonzero"/><path fill="#58bb8a" clip-path="url(#id_0)" d="M952.1085 448.29166C952.1085 450.77695 950.0938 452.79166 947.6085 452.79166C945.1232 452.79166 943.1085 450.77695 943.1085 448.29166C943.1085 445.8064 945.1232 443.79166 947.6085 443.79166C950.0938 443.79166 952.1085 445.8064 952.1085 448.29166Z" fill-rule="nonzero"/><path fill="#757575" d="M33.578125 559.8125L30.71875 559.8125L30.71875 558.9375L33.578125 558.9375L33.578125 559.8125ZM39.5625 559.3594Q39.5625 561.2656 38.90625 562.2031Q38.265625 563.125 36.875 563.125Q35.515625 563.125 34.859375 562.21875Q34.203125 561.3125 34.171875 559.5L34.171875 558.0625Q34.171875 556.1719 34.8125 555.2656Q35.46875 554.34375 36.859375 554.34375Q38.234375 554.34375 38.890625 555.2344Q39.546875 556.1094 39.5625 557.9531L39.5625 559.3594ZM38.46875 557.875Q38.46875 556.5 38.078125 555.875Q37.703125 555.2344 36.859375 555.2344Q36.03125 555.2344 35.640625 555.875Q35.265625 556.5 35.265625 557.7969L35.265625 559.53125Q35.265625 560.90625 35.65625 561.5781Q36.0625 562.2344 36.875 562.2344Q37.671875 562.2344 38.0625 561.6094Q38.453125 560.9844 38.46875 559.65625L38.46875 557.875ZM41.34375 562.4375Q41.34375 562.15625 41.5 561.96875Q41.671875 561.78125 42.0 561.78125Q42.34375 561.78125 42.515625 561.96875Q42.6875 562.15625 42.6875 562.4375Q42.6875 562.7031 42.515625 562.8906Q42.34375 563.0625 42.0 563.0625Q41.671875 563.0625 41.5 562.8906Q41.34375 562.7031 41.34375 562.4375ZM45.78125 558.2031L46.59375 558.2031Q47.375 558.1875 47.8125 557.7969Q48.25 557.40625 48.25 556.7344Q48.25 555.2344 46.75 555.2344Q46.046875 555.2344 45.625 555.6406Q45.21875 556.0469 45.21875 556.7031L44.125 556.7031Q44.125 555.6875 44.859375 555.0156Q45.609375 554.34375 46.75 554.34375Q47.953125 554.34375 48.640625 554.9844Q49.328125 555.625 49.328125 556.7656Q49.328125 557.3281 48.96875 557.84375Q48.609375 558.3594 47.984375 558.625Q48.6875 558.84375 49.0625 559.3594Q49.453125 559.875 49.453125 560.625Q49.453125 561.7656 48.703125 562.4531Q47.953125 563.125 46.75 563.125Q45.5625 563.125 44.796875 562.46875Q44.046875 561.8125 44.046875 560.75L45.140625 560.75Q45.140625 561.4219 45.578125 561.8281Q46.015625 562.2344 46.765625 562.2344Q47.546875 562.2344 47.953125 561.8281Q48.375 561.40625 48.375 560.6406Q48.375 559.90625 47.921875 559.5156Q47.46875 559.1094 46.59375 559.09375L45.78125 559.09375L45.78125 558.2031ZM51.109375 556.1094Q51.109375 555.34375 51.59375 554.84375Q52.09375 554.34375 52.859375 554.34375Q53.640625 554.34375 54.125 554.84375Q54.609375 555.34375 54.609375 556.1406L54.609375 556.5625Q54.609375 557.3281 54.109375 557.8281Q53.625 558.3125 52.875 558.3125Q52.109375 558.3125 51.609375 557.8281Q51.109375 557.3281 51.109375 556.5156L51.109375 556.1094ZM51.921875 556.5625Q51.921875 557.0156 52.171875 557.3125Q52.4375 557.6094 52.875 557.6094Q53.296875 557.6094 53.546875 557.3281Q53.796875 557.03125 53.796875 556.53125L53.796875 556.1094Q53.796875 555.65625 53.546875 555.3594Q53.296875 555.0469 52.859375 555.0469Q52.421875 555.0469 52.171875 555.3594Q51.921875 555.65625 51.921875 556.125L51.921875 556.5625ZM55.265625 560.90625Q55.265625 560.1406 55.75 559.65625Q56.25 559.15625 57.015625 559.15625Q57.78125 559.15625 58.265625 559.65625Q58.765625 560.1406 58.765625 560.9531L58.765625 561.3594Q58.765625 562.125 58.28125 562.625Q57.796875 563.125 57.03125 563.125Q56.265625 563.125 55.765625 562.6406Q55.265625 562.1406 55.265625 561.3281L55.265625 560.90625ZM56.078125 561.3594Q56.078125 561.8281 56.328125 562.125Q56.59375 562.4219 57.03125 562.4219Q57.453125 562.4219 57.703125 562.1406Q57.953125 561.84375 57.953125 561.34375L57.953125 560.90625Q57.953125 560.4375 57.6875 560.15625Q57.4375 559.8594 57.015625 559.8594Q56.59375 559.8594 56.328125 560.15625Q56.078125 560.4375 56.078125 560.9375L56.078125 561.3594ZM53.125 562.3594L52.5 561.96875L56.671875 555.2969L57.28125 555.6875L53.125 562.3594Z" fill-rule="nonzero"/><path fill="#757575" d="M39.5625 449.15103Q39.5625 451.05728 38.90625 451.99478Q38.265625 452.91666 36.875 452.91666Q35.515625 452.91666 34.859375 452.0104Q34.203125 451.10416 34.171875 449.29166L34.171875 447.85416Q34.171875 445.96353 34.8125 445.05728Q35.46875 444.1354 36.859375 444.1354Q38.234375 444.1354 38.890625 445.02603Q39.546875 445.90103 39.5625 447.74478L39.5625 449.15103ZM38.46875 447.66666Q38.46875 446.29166 38.078125 445.66666Q37.703125 445.02603 36.859375 445.02603Q36.03125 445.02603 35.640625 445.66666Q35.265625 446.29166 35.265625 447.58853L35.265625 449.3229Q35.265625 450.6979 35.65625 451.36978Q36.0625 452.02603 36.875 452.02603Q37.671875 452.02603 38.0625 451.40103Q38.453125 450.77603 38.46875 449.4479L38.46875 447.66666ZM41.34375 452.22916Q41.34375 451.9479 41.5 451.7604Q41.671875 451.5729 42.0 451.5729Q42.34375 451.5729 42.515625 451.7604Q42.6875 451.9479 42.6875 452.22916Q42.6875 452.49478 42.515625 452.68228Q42.34375 452.85416 42.0 452.85416Q41.671875 452.85416 41.5 452.68228Q41.34375 452.49478 41.34375 452.22916ZM49.5625 449.15103Q49.5625 451.05728 48.90625 451.99478Q48.265625 452.91666 46.875 452.91666Q45.515625 452.91666 44.859375 452.0104Q44.203125 451.10416 44.171875 449.29166L44.171875 447.85416Q44.171875 445.96353 44.8125 445.05728Q45.46875 444.1354 46.859375 444.1354Q48.234375 444.1354 48.890625 445.02603Q49.546875 445.90103 49.5625 447.74478L49.5625 449.15103ZM48.46875 447.66666Q48.46875 446.29166 48.078125 445.66666Q47.703125 445.02603 46.859375 445.02603Q46.03125 445.02603 45.640625 445.66666Q45.265625 446.29166 45.265625 447.58853L45.265625 449.3229Q45.265625 450.6979 45.65625 451.36978Q46.0625 452.02603 46.875 452.02603Q47.671875 452.02603 48.0625 451.40103Q48.453125 450.77603 48.46875 449.4479L48.46875 447.66666ZM51.109375 445.90103Q51.109375 445.1354 51.59375 444.6354Q52.09375 444.1354 52.859375 444.1354Q53.640625 444.1354 54.125 444.6354Q54.609375 445.1354 54.609375 445.93228L54.609375 446.35416Q54.609375 447.11978 54.109375 447.61978Q53.625 448.10416 52.875 448.10416Q52.109375 448.10416 51.609375 447.61978Q51.109375 447.11978 51.109375 446.30728L51.109375 445.90103ZM51.921875 446.35416Q51.921875 446.80728 52.171875 447.10416Q52.4375 447.40103 52.875 447.40103Q53.296875 447.40103 53.546875 447.11978Q53.796875 446.8229 53.796875 446.3229L53.796875 445.90103Q53.796875 445.4479 53.546875 445.15103Q53.296875 444.83853 52.859375 444.83853Q52.421875 444.83853 52.171875 445.15103Q51.921875 445.4479 51.921875 445.91666L51.921875 446.35416ZM55.265625 450.6979Q55.265625 449.93228 55.75 449.4479Q56.25 448.9479 57.015625 448.9479Q57.78125 448.9479 58.265625 449.4479Q58.765625 449.93228 58.765625 450.74478L58.765625 451.15103Q58.765625 451.91666 58.28125 452.41666Q57.796875 452.91666 57.03125 452.91666Q56.265625 452.91666 55.765625 452.43228Q55.265625 451.93228 55.265625 451.11978L55.265625 450.6979ZM56.078125 451.15103Q56.078125 451.61978 56.328125 451.91666Q56.59375 452.21353 57.03125 452.21353Q57.453125 452.21353 57.703125 451.93228Q57.953125 451.6354 57.953125 451.1354L57.953125 450.6979Q57.953125 450.22916 57.6875 449.9479Q57.4375 449.65103 57.015625 449.65103Q56.59375 449.65103 56.328125 449.9479Q56.078125 450.22916 56.078125 450.72916L56.078125 451.15103ZM53.125 452.15103L52.5 451.7604L56.671875 445.08853L57.28125 445.47916L53.125 452.15103Z" fill-rule="nonzero"/><path fill="#757575" d="M39.5625 338.94272Q39.5625 340.84897 38.90625 341.78647Q38.265625 342.70834 36.875 342.70834Q35.515625 342.70834 34.859375 341.8021Q34.203125 340.89584 34.171875 339.08334L34.171875 337.64584Q34.171875 335.75522 34.8125 334.84897Q35.46875 333.9271 36.859375 333.9271Q38.234375 333.9271 38.890625 334.81772Q39.546875 335.69272 39.5625 337.53647L39.5625 338.94272ZM38.46875 337.45834Q38.46875 336.08334 38.078125 335.45834Q37.703125 334.81772 36.859375 334.81772Q36.03125 334.81772 35.640625 335.45834Q35.265625 336.08334 35.265625 337.38022L35.265625 339.1146Q35.265625 340.4896 35.65625 341.16147Q36.0625 341.81772 36.875 341.81772Q37.671875 341.81772 38.0625 341.19272Q38.453125 340.56772 38.46875 339.2396L38.46875 337.45834ZM41.34375 342.02084Q41.34375 341.7396 41.5 341.5521Q41.671875 341.3646 42.0 341.3646Q42.34375 341.3646 42.515625 341.5521Q42.6875 341.7396 42.6875 342.02084Q42.6875 342.28647 42.515625 342.47397Q42.34375 342.64584 42.0 342.64584Q41.671875 342.64584 41.5 342.47397Q41.34375 342.28647 41.34375 342.02084ZM45.78125 337.78647L46.59375 337.78647Q47.375 337.77084 47.8125 337.38022Q48.25 336.9896 48.25 336.31772Q48.25 334.81772 46.75 334.81772Q46.046875 334.81772 45.625 335.22397Q45.21875 335.63022 45.21875 336.28647L44.125 336.28647Q44.125 335.27084 44.859375 334.59897Q45.609375 333.9271 46.75 333.9271Q47.953125 333.9271 48.640625 334.56772Q49.328125 335.20834 49.328125 336.34897Q49.328125 336.91147 48.96875 337.4271Q48.609375 337.94272 47.984375 338.20834Q48.6875 338.4271 49.0625 338.94272Q49.453125 339.45834 49.453125 340.20834Q49.453125 341.34897 48.703125 342.03647Q47.953125 342.70834 46.75 342.70834Q45.5625 342.70834 44.796875 342.0521Q44.046875 341.39584 44.046875 340.33334L45.140625 340.33334Q45.140625 341.00522 45.578125 341.41147Q46.015625 341.81772 46.765625 341.81772Q47.546875 341.81772 47.953125 341.41147Q48.375 340.9896 48.375 340.22397Q48.375 339.4896 47.921875 339.09897Q47.46875 338.69272 46.59375 338.6771L45.78125 338.6771L45.78125 337.78647ZM51.109375 335.69272Q51.109375 334.9271 51.59375 334.4271Q52.09375 333.9271 52.859375 333.9271Q53.640625 333.9271 54.125 334.4271Q54.609375 334.9271 54.609375 335.72397L54.609375 336.14584Q54.609375 336.91147 54.109375 337.41147Q53.625 337.89584 52.875 337.89584Q52.109375 337.89584 51.609375 337.41147Q51.109375 336.91147 51.109375 336.09897L51.109375 335.69272ZM51.921875 336.14584Q51.921875 336.59897 52.171875 336.89584Q52.4375 337.19272 52.875 337.19272Q53.296875 337.19272 53.546875 336.91147Q53.796875 336.6146 53.796875 336.1146L53.796875 335.69272Q53.796875 335.2396 53.546875 334.94272Q53.296875 334.63022 52.859375 334.63022Q52.421875 334.63022 52.171875 334.94272Q51.921875 335.2396 51.921875 335.70834L51.921875 336.14584ZM55.265625 340.4896Q55.265625 339.72397 55.75 339.2396Q56.25 338.7396 57.015625 338.7396Q57.78125 338.7396 58.265625 339.2396Q58.765625 339.72397 58.765625 340.53647L58.765625 340.94272Q58.765625 341.70834 58.28125 342.20834Q57.796875 342.70834 57.03125 342.70834Q56.265625 342.70834 55.765625 342.22397Q55.265625 341.72397 55.265625 340.91147L55.265625 340.4896ZM56.078125 340.94272Q56.078125 341.41147 56.328125 341.70834Q56.59375 342.00522 57.03125 342.00522Q57.453125 342.00522 57.703125 341.72397Q57.953125 341.4271 57.953125 340.9271L57.953125 340.4896Q57.953125 340.02084 57.6875 339.7396Q57.4375 339.44272 57.015625 339.44272Q56.59375 339.44272 56.328125 339.7396Q56.078125 340.02084 56.078125 340.52084L56.078125 340.94272ZM53.125 341.94272L52.5 341.5521L56.671875 334.88022L57.28125 335.27084L53.125 341.94272Z" fill-rule="nonzero"/><path fill="#757575" d="M39.5625 228.73438Q39.5625 230.64062 38.90625 231.57812Q38.265625 232.5 36.875 232.5Q35.515625 232.5 34.859375 231.59375Q34.203125 230.6875 34.171875 228.875L34.171875 227.4375Q34.171875 225.54688 34.8125 224.64062Q35.46875 223.71875 36.859375 223.71875Q38.234375 223.71875 38.890625 224.60938Q39.546875 225.48438 39.5625 227.32812L39.5625 228.73438ZM38.46875 227.25Q38.46875 225.875 38.078125 225.25Q37.703125 224.60938 36.859375 224.60938Q36.03125 224.60938 35.640625 225.25Q35.265625 225.875 35.265625 227.17188L35.265625 228.90625Q35.265625 230.28125 35.65625 230.95312Q36.0625 231.60938 36.875 231.60938Q37.671875 231.60938 38.0625 230.98438Q38.453125 230.35938 38.46875 229.03125L38.46875 227.25ZM41.34375 231.8125Q41.34375 231.53125 41.5 231.34375Q41.671875 231.15625 42.0 231.15625Q42.34375 231.15625 42.515625 231.34375Q42.6875 231.53125 42.6875 231.8125Q42.6875 232.07812 42.515625 232.26562Q42.34375 232.4375 42.0 232.4375Q41.671875 232.4375 41.5 232.26562Q41.34375 232.07812 41.34375 231.8125ZM44.703125 228.09375L45.140625 223.84375L49.515625 223.84375L49.515625 224.84375L46.0625 224.84375L45.796875 227.17188Q46.4375 226.79688 47.234375 226.79688Q48.390625 226.79688 49.078125 227.57812Q49.765625 228.34375 49.765625 229.65625Q49.765625 230.96875 49.046875 231.73438Q48.34375 232.5 47.0625 232.5Q45.9375 232.5 45.21875 231.875Q44.5 231.23438 44.40625 230.125L45.421875 230.125Q45.53125 230.85938 45.953125 231.23438Q46.375 231.60938 47.0625 231.60938Q47.8125 231.60938 48.25 231.09375Q48.6875 230.57812 48.6875 229.67188Q48.6875 228.8125 48.21875 228.29688Q47.75 227.78125 46.96875 227.78125Q46.265625 227.78125 45.859375 228.07812L45.578125 228.3125L44.703125 228.09375ZM51.109375 225.48438Q51.109375 224.71875 51.59375 224.21875Q52.09375 223.71875 52.859375 223.71875Q53.640625 223.71875 54.125 224.21875Q54.609375 224.71875 54.609375 225.51562L54.609375 225.9375Q54.609375 226.70312 54.109375 227.20312Q53.625 227.6875 52.875 227.6875Q52.109375 227.6875 51.609375 227.20312Q51.109375 226.70312 51.109375 225.89062L51.109375 225.48438ZM51.921875 225.9375Q51.921875 226.39062 52.171875 226.6875Q52.4375 226.98438 52.875 226.98438Q53.296875 226.98438 53.546875 226.70312Q53.796875 226.40625 53.796875 225.90625L53.796875 225.48438Q53.796875 225.03125 53.546875 224.73438Q53.296875 224.42188 52.859375 224.42188Q52.421875 224.42188 52.171875 224.73438Q51.921875 225.03125 51.921875 225.5L51.921875 225.9375ZM55.265625 230.28125Q55.265625 229.51562 55.75 229.03125Q56.25 228.53125 57.015625 228.53125Q57.78125 228.53125 58.265625 229.03125Q58.765625 229.51562 58.765625 230.32812L58.765625 230.73438Q58.765625 231.5 58.28125 232.0Q57.796875 232.5 57.03125 232.5Q56.265625 232.5 55.765625 232.01562Q55.265625 231.51562 55.265625 230.70312L55.265625 230.28125ZM56.078125 230.73438Q56.078125 231.20312 56.328125 231.5Q56.59375 231.79688 57.03125 231.79688Q57.453125 231.79688 57.703125 231.51562Q57.953125 231.21875 57.953125 230.71875L57.953125 230.28125Q57.953125 229.8125 57.6875 229.53125Q57.4375 229.23438 57.015625 229.23438Q56.59375 229.23438 56.328125 229.53125Q56.078125 229.8125 56.078125 230.3125L56.078125 230.73438ZM53.125 231.73438L52.5 231.34375L56.671875 224.67188L57.28125 225.0625L53.125 231.73438Z" fill-rule="nonzero"/><path fill="#757575" d="M39.5625 118.52604Q39.5625 120.43229 38.90625 121.36979Q38.265625 122.291664 36.875 122.291664Q35.515625 122.291664 34.859375 121.385414Q34.203125 120.479164 34.171875 118.666664L34.171875 117.229164Q34.171875 115.33854 34.8125 114.43229Q35.46875 113.510414 36.859375 113.510414Q38.234375 113.510414 38.890625 114.40104Q39.546875 115.27604 39.5625 117.11979L39.5625 118.52604ZM38.46875 117.041664Q38.46875 115.666664 38.078125 115.041664Q37.703125 114.40104 36.859375 114.40104Q36.03125 114.40104 35.640625 115.041664Q35.265625 115.666664 35.265625 116.96354L35.265625 118.697914Q35.265625 120.072914 35.65625 120.74479Q36.0625 121.40104 36.875 121.40104Q37.671875 121.40104 38.0625 120.77604Q38.453125 120.15104 38.46875 118.822914L38.46875 117.041664ZM41.34375 121.604164Q41.34375 121.322914 41.5 121.135414Q41.671875 120.947914 42.0 120.947914Q42.34375 120.947914 42.515625 121.135414Q42.6875 121.322914 42.6875 121.604164Q42.6875 121.86979 42.515625 122.05729Q42.34375 122.229164 42.0 122.229164Q41.671875 122.229164 41.5 122.05729Q41.34375 121.86979 41.34375 121.604164ZM49.390625 115.854164Q49.390625 116.49479 49.046875 116.99479Q48.703125 117.49479 48.140625 117.77604Q48.796875 118.05729 49.1875 118.61979Q49.578125 119.166664 49.578125 119.86979Q49.578125 120.96354 48.828125 121.635414Q48.09375 122.291664 46.875 122.291664Q45.640625 122.291664 44.890625 121.635414Q44.15625 120.96354 44.15625 119.86979Q44.15625 119.166664 44.53125 118.61979Q44.90625 118.05729 45.578125 117.77604Q45.015625 117.49479 44.6875 116.99479Q44.359375 116.49479 44.359375 115.854164Q44.359375 114.77604 45.046875 114.15104Q45.734375 113.510414 46.875 113.510414Q48.0 113.510414 48.6875 114.15104Q49.390625 114.77604 49.390625 115.854164ZM48.5 119.83854Q48.5 119.11979 48.046875 118.68229Q47.59375 118.229164 46.859375 118.229164Q46.125 118.229164 45.671875 118.68229Q45.234375 119.11979 45.234375 119.854164Q45.234375 120.572914 45.671875 120.99479Q46.109375 121.40104 46.875 121.40104Q47.625 121.40104 48.0625 120.979164Q48.5 120.55729 48.5 119.83854ZM46.875 114.40104Q46.234375 114.40104 45.828125 114.80729Q45.4375 115.197914 45.4375 115.885414Q45.4375 116.52604 45.828125 116.93229Q46.21875 117.33854 46.859375 117.33854Q47.515625 117.33854 47.90625 116.93229Q48.296875 116.52604 48.296875 115.885414Q48.296875 115.229164 47.890625 114.822914Q47.484375 114.40104 46.875 114.40104ZM51.109375 115.27604Q51.109375 114.510414 51.59375 114.010414Q52.09375 113.510414 52.859375 113.510414Q53.640625 113.510414 54.125 114.010414Q54.609375 114.510414 54.609375 115.30729L54.609375 115.729164Q54.609375 116.49479 54.109375 116.99479Q53.625 117.479164 52.875 117.479164Q52.109375 117.479164 51.609375 116.99479Q51.109375 116.49479 51.109375 115.68229L51.109375 115.27604ZM51.921875 115.729164Q51.921875 116.18229 52.171875 116.479164Q52.4375 116.77604 52.875 116.77604Q53.296875 116.77604 53.546875 116.49479Q53.796875 116.197914 53.796875 115.697914L53.796875 115.27604Q53.796875 114.822914 53.546875 114.52604Q53.296875 114.21354 52.859375 114.21354Q52.421875 114.21354 52.171875 114.52604Q51.921875 114.822914 51.921875 115.291664L51.921875 115.729164ZM55.265625 120.072914Q55.265625 119.30729 55.75 118.822914Q56.25 118.322914 57.015625 118.322914Q57.78125 118.322914 58.265625 118.822914Q58.765625 119.30729 58.765625 120.11979L58.765625 120.52604Q58.765625 121.291664 58.28125 121.791664Q57.796875 122.291664 57.03125 122.291664Q56.265625 122.291664 55.765625 121.80729Q55.265625 121.30729 55.265625 120.49479L55.265625 120.072914ZM56.078125 120.52604Q56.078125 120.99479 56.328125 121.291664Q56.59375 121.58854 57.03125 121.58854Q57.453125 121.58854 57.703125 121.30729Q57.953125 121.010414 57.953125 120.510414L57.953125 120.072914Q57.953125 119.604164 57.6875 119.322914Q57.4375 119.02604 57.015625 119.02604Q56.59375 119.02604 56.328125 119.322914Q56.078125 119.604164 56.078125 120.104164L56.078125 120.52604ZM53.125 121.52604L52.5 121.135414L56.671875 114.46354L57.28125 114.854164L53.125 121.52604Z" fill-rule="nonzero"/><path fill="#757575" d="M48.82897 567.96875L51.625847 574.9219L54.407097 567.96875L55.875847 567.96875L55.875847 576.5L54.750847 576.5L54.750847 573.1719L54.86022 569.59375L52.04772 576.5L51.188347 576.5L48.39147 569.6094L48.500847 573.1719L48.500847 576.5L47.375847 576.5L47.375847 567.96875L48.82897 567.96875ZM61.125847 576.5Q61.032097 576.3125 60.969597 575.8281Q60.219597 576.625 59.17272 576.625Q58.23522 576.625 57.625847 576.09375Q57.032097 575.5625 57.032097 574.7344Q57.032097 573.75 57.782097 573.2031Q58.532097 572.65625 59.907097 572.65625L60.95397 572.65625L60.95397 572.15625Q60.95397 571.59375 60.61022 571.2656Q60.282097 570.9219 59.61022 570.9219Q59.032097 570.9219 58.64147 571.21875Q58.250847 571.5 58.250847 571.9219L57.157097 571.9219Q57.157097 571.4375 57.48522 571.0Q57.82897 570.5625 58.407097 570.3125Q58.98522 570.0469 59.67272 570.0469Q60.782097 570.0469 61.39147 570.59375Q62.01647 571.1406 62.04772 572.09375L62.04772 575.0156Q62.04772 575.8906 62.26647 576.40625L62.26647 576.5L61.125847 576.5ZM59.32897 575.6719Q59.844597 575.6719 60.29772 575.40625Q60.750847 575.1406 60.95397 574.71875L60.95397 573.4219L60.11022 573.4219Q58.11022 573.4219 58.11022 574.59375Q58.11022 575.09375 58.45397 575.3906Q58.79772 575.6719 59.32897 575.6719ZM67.2821 571.125Q67.0321 571.09375 66.75085 571.09375Q65.67272 571.09375 65.29772 572.0L65.29772 576.5L64.2196 576.5L64.2196 570.15625L65.26647 570.15625L65.2821 570.8906Q65.81335 570.0469 66.79772 570.0469Q67.11022 570.0469 67.2821 570.125L67.2821 571.125ZM76.68835 576.5L71.0946 576.5L71.0946 575.71875L74.04772 572.4375Q74.70397 571.6875 74.95397 571.2344Q75.20397 570.7656 75.20397 570.2656Q75.20397 569.59375 74.79772 569.1719Q74.4071 568.7344 73.7196 568.7344Q72.92272 568.7344 72.4696 569.2031Q72.01647 569.65625 72.01647 570.4844L70.93835 570.4844Q70.93835 569.2969 71.68835 568.5781Q72.45397 567.84375 73.7196 567.84375Q74.92272 567.84375 75.61022 568.46875Q76.29772 569.09375 76.29772 570.1406Q76.29772 571.3906 74.68835 573.1406L72.4071 575.6094L76.68835 575.6094L76.68835 576.5ZM83.45397 572.8594Q83.45397 574.7656 82.79772 575.7031Q82.1571 576.625 80.76647 576.625Q79.4071 576.625 78.75085 575.71875Q78.0946 574.8125 78.06335 573.0L78.06335 571.5625Q78.06335 569.6719 78.70397 568.7656Q79.36022 567.84375 80.75085 567.84375Q82.12585 567.84375 82.7821 568.7344Q83.43835 569.6094 83.45397 571.4531L83.45397 572.8594ZM82.36022 571.375Q82.36022 570.0 81.9696 569.375Q81.5946 568.7344 80.75085 568.7344Q79.92272 568.7344 79.5321 569.375Q79.1571 570.0 79.1571 571.2969L79.1571 573.03125Q79.1571 574.40625 79.54772 575.0781Q79.95397 575.7344 80.76647 575.7344Q81.56335 575.7344 81.95397 575.1094Q82.3446 574.4844 82.36022 573.15625L82.36022 571.375ZM90.68835 576.5L85.0946 576.5L85.0946 575.71875L88.04772 572.4375Q88.70397 571.6875 88.95397 571.2344Q89.20397 570.7656 89.20397 570.2656Q89.20397 569.59375 88.79772 569.1719Q88.4071 568.7344 87.7196 568.7344Q86.92272 568.7344 86.4696 569.2031Q86.01647 569.65625 86.01647 570.4844L84.93835 570.4844Q84.93835 569.2969 85.68835 568.5781Q86.45397 567.84375 87.7196 567.84375Q88.92272 567.84375 89.61022 568.46875Q90.29772 569.09375 90.29772 570.1406Q90.29772 571.3906 88.68835 573.1406L86.4071 575.6094L90.68835 575.6094L90.68835 576.5ZM95.6571 576.5L94.57897 576.5L94.57897 569.28125L92.39147 570.0781L92.39147 569.09375L95.50085 567.9219L95.6571 567.9219L95.6571 576.5Z" fill-rule="nonzero"/><path fill="#757575" d="M241.96803 567.96875L244.76491 574.9219L247.54616 567.96875L249.01491 567.96875L249.01491 576.5L247.88991 576.5L247.88991 573.1719L247.99928 569.59375L245.18678 576.5L244.32741 576.5L241.53053 569.6094L241.63991 573.1719L241.63991 576.5L240.51491 576.5L240.51491 567.96875L241.96803 567.96875ZM254.26491 576.5Q254.17116 576.3125 254.10866 575.8281Q253.35866 576.625 252.31178 576.625Q251.37428 576.625 250.76491 576.09375Q250.17116 575.5625 250.17116 574.7344Q250.17116 573.75 250.92116 573.2031Q251.67116 572.65625 253.04616 572.65625L254.09303 572.65625L254.09303 572.15625Q254.09303 571.59375 253.74928 571.2656Q253.42116 570.9219 252.74928 570.9219Q252.17116 570.9219 251.78053 571.21875Q251.38991 571.5 251.38991 571.9219L250.29616 571.9219Q250.29616 571.4375 250.62428 571.0Q250.96803 570.5625 251.54616 570.3125Q252.12428 570.0469 252.81178 570.0469Q253.92116 570.0469 254.53053 570.59375Q255.15553 571.1406 255.18678 572.09375L255.18678 575.0156Q255.18678 575.8906 255.40553 576.40625L255.40553 576.5L254.26491 576.5ZM252.46803 575.6719Q252.98366 575.6719 253.43678 575.40625Q253.88991 575.1406 254.09303 574.71875L254.09303 573.4219L253.24928 573.4219Q251.24928 573.4219 251.24928 574.59375Q251.24928 575.09375 251.59303 575.3906Q251.93678 575.6719 252.46803 575.6719ZM259.42114 574.90625L260.90552 570.15625L262.06177 570.15625L259.5149 577.4844Q258.92114 579.0625 257.6399 579.0625L257.42114 579.0469L257.03052 578.96875L257.03052 578.09375L257.31177 578.1094Q257.87427 578.1094 258.17114 577.8906Q258.48364 577.6719 258.68677 577.0781L258.92114 576.4219L256.65552 570.15625L257.84302 570.15625L259.42114 574.90625ZM271.8274 576.5L266.23364 576.5L266.23364 575.71875L269.18677 572.4375Q269.84302 571.6875 270.09302 571.2344Q270.34302 570.7656 270.34302 570.2656Q270.34302 569.59375 269.93677 569.1719Q269.54614 568.7344 268.85864 568.7344Q268.06177 568.7344 267.60864 569.2031Q267.15552 569.65625 267.15552 570.4844L266.0774 570.4844Q266.0774 569.2969 266.8274 568.5781Q267.59302 567.84375 268.85864 567.84375Q270.06177 567.84375 270.74927 568.46875Q271.43677 569.09375 271.43677 570.1406Q271.43677 571.3906 269.8274 573.1406L267.54614 575.6094L271.8274 575.6094L271.8274 576.5ZM278.59302 572.8594Q278.59302 574.7656 277.93677 575.7031Q277.29614 576.625 275.90552 576.625Q274.54614 576.625 273.8899 575.71875Q273.23364 574.8125 273.2024 573.0L273.2024 571.5625Q273.2024 569.6719 273.84302 568.7656Q274.49927 567.84375 275.8899 567.84375Q277.2649 567.84375 277.92114 568.7344Q278.5774 569.6094 278.59302 571.4531L278.59302 572.8594ZM277.49927 571.375Q277.49927 570.0 277.10864 569.375Q276.73364 568.7344 275.8899 568.7344Q275.06177 568.7344 274.67114 569.375Q274.29614 570.0 274.29614 571.2969L274.29614 573.03125Q274.29614 574.40625 274.68677 575.0781Q275.09302 575.7344 275.90552 575.7344Q276.7024 575.7344 277.09302 575.1094Q277.48364 574.4844 277.49927 573.15625L277.49927 571.375ZM285.8274 576.5L280.23364 576.5L280.23364 575.71875L283.18677 572.4375Q283.84302 571.6875 284.09302 571.2344Q284.34302 570.7656 284.34302 570.2656Q284.34302 569.59375 283.93677 569.1719Q283.54614 568.7344 282.85864 568.7344Q282.06177 568.7344 281.60864 569.2031Q281.15552 569.65625 281.15552 570.4844L280.0774 570.4844Q280.0774 569.2969 280.8274 568.5781Q281.59302 567.84375 282.85864 567.84375Q284.06177 567.84375 284.74927 568.46875Q285.43677 569.09375 285.43677 570.1406Q285.43677 571.3906 283.8274 573.1406L281.54614 575.6094L285.8274 575.6094L285.8274 576.5ZM290.79614 576.5L289.71802 576.5L289.71802 569.28125L287.53052 570.0781L287.53052 569.09375L290.6399 567.9219L290.79614 567.9219L290.79614 576.5Z" fill-rule="nonzero"/><path fill="#757575" d="M441.2321 567.96875L442.3727 567.96875L442.3727 574.0156Q442.3727 575.2344 441.6227 575.9375Q440.88834 576.625 439.6696 576.625Q438.40396 576.625 437.6852 575.96875Q436.9821 575.3125 436.9821 574.1406L438.1071 574.1406Q438.1071 574.875 438.4977 575.2969Q438.90396 575.7031 439.6696 575.7031Q440.3727 575.7031 440.7946 575.2656Q441.2321 574.8125 441.2321 574.03125L441.2321 567.96875ZM448.40396 575.875Q447.77896 576.625 446.5446 576.625Q445.52896 576.625 444.9977 576.03125Q444.46646 575.4375 444.46646 574.28125L444.46646 570.15625L445.5446 570.15625L445.5446 574.25Q445.5446 575.7031 446.71646 575.7031Q447.96646 575.7031 448.3727 574.7656L448.3727 570.15625L449.46646 570.15625L449.46646 576.5L448.4352 576.5L448.40396 575.875ZM452.6696 576.5L451.59146 576.5L451.59146 567.5L452.6696 567.5L452.6696 576.5ZM462.96646 576.5L457.3727 576.5L457.3727 575.71875L460.32584 572.4375Q460.9821 571.6875 461.2321 571.2344Q461.4821 570.7656 461.4821 570.2656Q461.4821 569.59375 461.07584 569.1719Q460.6852 568.7344 459.9977 568.7344Q459.20084 568.7344 458.7477 569.2031Q458.2946 569.65625 458.2946 570.4844L457.21646 570.4844Q457.21646 569.2969 457.96646 568.5781Q458.7321 567.84375 459.9977 567.84375Q461.20084 567.84375 461.88834 568.46875Q462.57584 569.09375 462.57584 570.1406Q462.57584 571.3906 460.96646 573.1406L458.6852 575.6094L462.96646 575.6094L462.96646 576.5ZM469.7321 572.8594Q469.7321 574.7656 469.07584 575.7031Q468.4352 576.625 467.0446 576.625Q465.6852 576.625 465.02896 575.71875Q464.3727 574.8125 464.34146 573.0L464.34146 571.5625Q464.34146 569.6719 464.9821 568.7656Q465.63834 567.84375 467.02896 567.84375Q468.40396 567.84375 469.0602 568.7344Q469.71646 569.6094 469.7321 571.4531L469.7321 572.8594ZM468.63834 571.375Q468.63834 570.0 468.2477 569.375Q467.8727 568.7344 467.02896 568.7344Q466.20084 568.7344 465.8102 569.375Q465.4352 570.0 465.4352 571.2969L465.4352 573.03125Q465.4352 574.40625 465.82584 575.0781Q466.2321 575.7344 467.0446 575.7344Q467.84146 575.7344 468.2321 575.1094Q468.6227 574.4844 468.63834 573.15625L468.63834 571.375ZM476.96646 576.5L471.3727 576.5L471.3727 575.71875L474.32584 572.4375Q474.9821 571.6875 475.2321 571.2344Q475.4821 570.7656 475.4821 570.2656Q475.4821 569.59375 475.07584 569.1719Q474.6852 568.7344 473.9977 568.7344Q473.20084 568.7344 472.7477 569.2031Q472.2946 569.65625 472.2946 570.4844L471.21646 570.4844Q471.21646 569.2969 471.96646 568.5781Q472.7321 567.84375 473.9977 567.84375Q475.20084 567.84375 475.88834 568.46875Q476.57584 569.09375 476.57584 570.1406Q476.57584 571.3906 474.96646 573.1406L472.6852 575.6094L476.96646 575.6094L476.96646 576.5ZM481.9352 576.5L480.8571 576.5L480.8571 569.28125L478.6696 570.0781L478.6696 569.09375L481.77896 567.9219L481.9352 567.9219L481.9352 576.5Z" fill-rule="nonzero"/><path fill="#757575" d="M635.9913 572.7031Q634.5538 572.28125 633.8819 571.6719Q633.22565 571.0625 633.22565 570.1719Q633.22565 569.1719 634.0225 568.5156Q634.835 567.84375 636.1319 567.84375Q637.0069 567.84375 637.6944 568.1875Q638.3819 568.53125 638.7569 569.125Q639.1475 569.71875 639.1475 570.4375L638.0069 570.4375Q638.0069 569.65625 637.5069 569.21875Q637.0225 568.78125 636.1319 568.78125Q635.3038 568.78125 634.835 569.15625Q634.3663 569.5156 634.3663 570.15625Q634.3663 570.6875 634.8038 571.0469Q635.2569 571.40625 636.3194 571.7031Q637.3819 572.0 637.97565 572.3594Q638.585 572.71875 638.8663 573.2031Q639.16315 573.6875 639.16315 574.3281Q639.16315 575.375 638.35065 576.0Q637.53815 576.625 636.1944 576.625Q635.3038 576.625 634.53815 576.28125Q633.78815 575.9375 633.3663 575.3594Q632.96 574.7656 632.96 574.03125L634.085 574.03125Q634.085 574.7969 634.66315 575.25Q635.2413 575.7031 636.1944 575.7031Q637.085 575.7031 637.5538 575.34375Q638.0225 574.96875 638.0225 574.34375Q638.0225 573.71875 637.585 573.375Q637.1475 573.03125 635.9913 572.7031ZM642.9444 576.625Q641.6475 576.625 640.835 575.78125Q640.03815 574.9219 640.03815 573.5L640.03815 573.3125Q640.03815 572.3594 640.3975 571.625Q640.7569 570.875 641.3975 570.46875Q642.0538 570.0469 642.8038 570.0469Q644.03815 570.0469 644.72565 570.8594Q645.41315 571.6719 645.41315 573.1875L645.41315 573.6406L641.1163 573.6406Q641.1475 574.5781 641.66315 575.15625Q642.1944 575.7344 643.0069 575.7344Q643.5694 575.7344 643.96 575.5Q644.3663 575.2656 644.6788 574.875L645.335 575.3906Q644.53815 576.625 642.9444 576.625ZM642.8038 570.9375Q642.1475 570.9375 641.6944 571.4219Q641.2569 571.8906 641.16315 572.75L644.335 572.75L644.335 572.6719Q644.28815 571.84375 643.8819 571.3906Q643.4913 570.9375 642.8038 570.9375ZM651.66315 573.40625Q651.66315 574.84375 651.0069 575.7344Q650.35065 576.625 649.21 576.625Q648.0538 576.625 647.3975 575.8906L647.3975 578.9375L646.3194 578.9375L646.3194 570.15625L647.3038 570.15625L647.35065 570.8594Q648.0225 570.0469 649.1944 570.0469Q650.335 570.0469 650.9913 570.90625Q651.66315 571.7656 651.66315 573.2969L651.66315 573.40625ZM650.585 573.28125Q650.585 572.2031 650.1163 571.59375Q649.66315 570.96875 648.8663 570.96875Q647.8819 570.96875 647.3975 571.8281L647.3975 574.8594Q647.8819 575.7344 648.8819 575.7344Q649.66315 575.7344 650.1163 575.125Q650.585 574.5 650.585 573.28125ZM661.78815 576.5L656.1944 576.5L656.1944 575.71875L659.1475 572.4375Q659.8038 571.6875 660.0538 571.2344Q660.3038 570.7656 660.3038 570.2656Q660.3038 569.59375 659.8975 569.1719Q659.5069 568.7344 658.8194 568.7344Q658.0225 568.7344 657.5694 569.2031Q657.1163 569.65625 657.1163 570.4844L656.03815 570.4844Q656.03815 569.2969 656.78815 568.5781Q657.5538 567.84375 658.8194 567.84375Q660.0225 567.84375 660.71 568.46875Q661.3975 569.09375 661.3975 570.1406Q661.3975 571.3906 659.78815 573.1406L657.5069 575.6094L661.78815 575.6094L661.78815 576.5ZM668.5538 572.8594Q668.5538 574.7656 667.8975 575.7031Q667.2569 576.625 665.8663 576.625Q664.5069 576.625 663.85065 575.71875Q663.1944 574.8125 663.16315 573.0L663.16315 571.5625Q663.16315 569.6719 663.8038 568.7656Q664.46 567.84375 665.85065 567.84375Q667.22565 567.84375 667.8819 568.7344Q668.53815 569.6094 668.5538 571.4531L668.5538 572.8594ZM667.46 571.375Q667.46 570.0 667.0694 569.375Q666.6944 568.7344 665.85065 568.7344Q665.0225 568.7344 664.6319 569.375Q664.2569 570.0 664.2569 571.2969L664.2569 573.03125Q664.2569 574.40625 664.6475 575.0781Q665.0538 575.7344 665.8663 575.7344Q666.66315 575.7344 667.0538 575.1094Q667.4444 574.4844 667.46 573.15625L667.46 571.375ZM675.78815 576.5L670.1944 576.5L670.1944 575.71875L673.1475 572.4375Q673.8038 571.6875 674.0538 571.2344Q674.3038 570.7656 674.3038 570.2656Q674.3038 569.59375 673.8975 569.1719Q673.5069 568.7344 672.8194 568.7344Q672.0225 568.7344 671.5694 569.2031Q671.1163 569.65625 671.1163 570.4844L670.03815 570.4844Q670.03815 569.2969 670.78815 568.5781Q671.5538 567.84375 672.8194 567.84375Q674.0225 567.84375 674.71 568.46875Q675.3975 569.09375 675.3975 570.1406Q675.3975 571.3906 673.78815 573.1406L671.5069 575.6094L675.78815 575.6094L675.78815 576.5ZM680.7569 576.5L679.6788 576.5L679.6788 569.28125L677.4913 570.0781L677.4913 569.09375L680.60065 567.9219L680.7569 567.9219L680.7569 576.5Z" fill-rule="nonzero"/><path fill="#757575" d="M833.1772 576.5L832.0522 576.5L827.7553 569.9219L827.7553 576.5L826.6147 576.5L826.6147 567.96875L827.7553 567.96875L832.0522 574.5781L832.0522 567.96875L833.1772 567.96875L833.1772 576.5ZM835.16156 573.2656Q835.16156 572.34375 835.52094 571.59375Q835.89594 570.84375 836.5522 570.4531Q837.20844 570.0469 838.03656 570.0469Q839.33344 570.0469 840.1303 570.9375Q840.9428 571.8281 840.9428 573.3281L840.9428 573.40625Q840.9428 574.3281 840.58344 575.0625Q840.22406 575.7969 839.5678 576.21875Q838.91156 576.625 838.0522 576.625Q836.77094 576.625 835.95844 575.7344Q835.16156 574.8281 835.16156 573.34375L835.16156 573.2656ZM836.2553 573.40625Q836.2553 574.4531 836.7397 575.09375Q837.2397 575.7344 838.0522 575.7344Q838.8803 575.7344 839.3647 575.09375Q839.84906 574.4375 839.84906 573.2656Q839.84906 572.2344 839.34906 571.59375Q838.8647 570.9375 838.03656 570.9375Q837.2397 570.9375 836.7397 571.5781Q836.2553 572.2031 836.2553 573.40625ZM844.53656 575.03125L846.1147 570.15625L847.22406 570.15625L844.9428 576.5L844.1147 576.5L841.8178 570.15625L842.9272 570.15625L844.53656 575.03125ZM856.9272 576.5L851.33344 576.5L851.33344 575.71875L854.28656 572.4375Q854.9428 571.6875 855.1928 571.2344Q855.4428 570.7656 855.4428 570.2656Q855.4428 569.59375 855.03656 569.1719Q854.64594 568.7344 853.95844 568.7344Q853.16156 568.7344 852.70844 569.2031Q852.2553 569.65625 852.2553 570.4844L851.1772 570.4844Q851.1772 569.2969 851.9272 568.5781Q852.6928 567.84375 853.95844 567.84375Q855.16156 567.84375 855.84906 568.46875Q856.53656 569.09375 856.53656 570.1406Q856.53656 571.3906 854.9272 573.1406L852.64594 575.6094L856.9272 575.6094L856.9272 576.5ZM863.6928 572.8594Q863.6928 574.7656 863.03656 575.7031Q862.39594 576.625 861.0053 576.625Q859.64594 576.625 858.9897 575.71875Q858.33344 574.8125 858.3022 573.0L858.3022 571.5625Q858.3022 569.6719 858.9428 568.7656Q859.59906 567.84375 860.9897 567.84375Q862.3647 567.84375 863.02094 568.7344Q863.6772 569.6094 863.6928 571.4531L863.6928 572.8594ZM862.59906 571.375Q862.59906 570.0 862.20844 569.375Q861.83344 568.7344 860.9897 568.7344Q860.16156 568.7344 859.77094 569.375Q859.39594 570.0 859.39594 571.2969L859.39594 573.03125Q859.39594 574.40625 859.78656 575.0781Q860.1928 575.7344 861.0053 575.7344Q861.8022 575.7344 862.1928 575.1094Q862.58344 574.4844 862.59906 573.15625L862.59906 571.375ZM870.9272 576.5L865.33344 576.5L865.33344 575.71875L868.28656 572.4375Q868.9428 571.6875 869.1928 571.2344Q869.4428 570.7656 869.4428 570.2656Q869.4428 569.59375 869.03656 569.1719Q868.64594 568.7344 867.95844 568.7344Q867.16156 568.7344 866.70844 569.2031Q866.2553 569.65625 866.2553 570.4844L865.1772 570.4844Q865.1772 569.2969 865.9272 568.5781Q866.6928 567.84375 867.95844 567.84375Q869.16156 567.84375 869.84906 568.46875Q870.53656 569.09375 870.53656 570.1406Q870.53656 571.3906 868.9272 573.1406L866.64594 575.6094L870.9272 575.6094L870.9272 576.5ZM875.89594 576.5L874.8178 576.5L874.8178 569.28125L872.6303 570.0781L872.6303 569.09375L875.7397 567.9219L875.89594 567.9219L875.89594 576.5Z" fill-rule="nonzero"/><path fill="#21759b" d="M321.0 82.333336C321.0 85.64704 318.31372 88.333336 315.0 88.333336C311.68628 88.333336 309.0 85.64704 309.0 82.333336C309.0 79.01962 311.68628 76.333336 315.0 76.333336C318.31372 76.333336 321.0 79.01962 321.0 82.333336Z" fill-rule="nonzero"/><path fill="#757575" d="M331.82812 84.145836L332.0 85.270836L332.23438 84.25521L333.92188 78.302086L334.875 78.302086L336.51562 84.25521L336.75 85.28646L336.9375 84.13021L338.26562 78.302086L339.39062 78.302086L337.32812 86.833336L336.29688 86.833336L334.53125 80.614586L334.40625 79.958336L334.26562 80.614586L332.45312 86.833336L331.42188 86.833336L329.35938 78.302086L330.48438 78.302086L331.82812 84.145836ZM340.53125 83.59896Q340.53125 82.677086 340.89062 81.927086Q341.26562 81.177086 341.92188 80.78646Q342.57812 80.38021 343.40625 80.38021Q344.70312 80.38021 345.5 81.270836Q346.3125 82.16146 346.3125 83.66146L346.3125 83.739586Q346.3125 84.66146 345.95312 85.395836Q345.59375 86.13021 344.9375 86.552086Q344.28125 86.958336 343.42188 86.958336Q342.14062 86.958336 341.32812 86.06771Q340.53125 85.16146 340.53125 83.677086L340.53125 83.59896ZM341.625 83.739586Q341.625 84.78646 342.10938 85.427086Q342.60938 86.06771 343.42188 86.06771Q344.25 86.06771 344.73438 85.427086Q345.21875 84.770836 345.21875 83.59896Q345.21875 82.56771 344.71875 81.927086Q344.23438 81.270836 343.40625 81.270836Q342.60938 81.270836 342.10938 81.91146Q341.625 82.53646 341.625 83.739586ZM350.89062 81.458336Q350.64062 81.427086 350.35938 81.427086Q349.28125 81.427086 348.90625 82.333336L348.90625 86.833336L347.82812 86.833336L347.82812 80.489586L348.875 80.489586L348.89062 81.22396Q349.42188 80.38021 350.40625 80.38021Q350.71875 80.38021 350.89062 80.458336L350.89062 81.458336ZM351.5625 83.614586Q351.5625 82.145836 352.25 81.270836Q352.9375 80.38021 354.0625 80.38021Q355.17188 80.38021 355.82812 81.13021L355.82812 77.833336L356.90625 77.833336L356.90625 86.833336L355.90625 86.833336L355.85938 86.145836Q355.20312 86.958336 354.04688 86.958336Q352.95312 86.958336 352.25 86.052086Q351.5625 85.145836 351.5625 83.69271L351.5625 83.614586ZM352.64062 83.739586Q352.64062 84.81771 353.07812 85.427086Q353.53125 86.03646 354.3125 86.03646Q355.34375 86.03646 355.82812 85.09896L355.82812 82.19271Q355.34375 81.302086 354.32812 81.302086Q353.53125 81.302086 353.07812 81.91146Q352.64062 82.520836 352.64062 83.739586ZM360.10938 83.489586L360.10938 86.833336L358.98438 86.833336L358.98438 78.302086L362.14062 78.302086Q363.53125 78.302086 364.32812 79.020836Q365.125 79.72396 365.125 80.91146Q365.125 82.145836 364.34375 82.81771Q363.57812 83.489586 362.125 83.489586L360.10938 83.489586ZM360.10938 82.56771L362.14062 82.56771Q363.04688 82.56771 363.51562 82.145836Q364.0 81.72396 364.0 80.927086Q364.0 80.16146 363.51562 79.708336Q363.04688 79.239586 362.20312 79.22396L360.10938 79.22396L360.10938 82.56771ZM369.89062 81.458336Q369.64062 81.427086 369.35938 81.427086Q368.28125 81.427086 367.90625 82.333336L367.90625 86.833336L366.82812 86.833336L366.82812 80.489586L367.875 80.489586L367.89062 81.22396Q368.42188 80.38021 369.40625 80.38021Q369.71875 80.38021 369.89062 80.458336L369.89062 81.458336ZM373.45312 86.958336Q372.15625 86.958336 371.34375 86.114586Q370.54688 85.25521 370.54688 83.833336L370.54688 83.645836Q370.54688 82.69271 370.90625 81.958336Q371.26562 81.208336 371.90625 80.802086Q372.5625 80.38021 373.3125 80.38021Q374.54688 80.38021 375.23438 81.19271Q375.92188 82.00521 375.92188 83.520836L375.92188 83.97396L371.625 83.97396Q371.65625 84.91146 372.17188 85.489586Q372.70312 86.06771 373.51562 86.06771Q374.07812 86.06771 374.46875 85.833336Q374.875 85.59896 375.1875 85.208336L375.84375 85.72396Q375.04688 86.958336 373.45312 86.958336ZM373.3125 81.270836Q372.65625 81.270836 372.20312 81.75521Q371.76562 82.22396 371.67188 83.083336L374.84375 83.083336L374.84375 83.00521Q374.79688 82.177086 374.39062 81.72396Q374.0 81.270836 373.3125 81.270836ZM380.51562 85.145836Q380.51562 84.708336 380.17188 84.47396Q379.84375 84.22396 379.01562 84.052086Q378.20312 83.88021 377.71875 83.63021Q377.23438 83.38021 377.0 83.052086Q376.78125 82.708336 376.78125 82.239586Q376.78125 81.458336 377.4375 80.927086Q378.09375 80.38021 379.125 80.38021Q380.20312 80.38021 380.85938 80.94271Q381.53125 81.489586 381.53125 82.34896L380.45312 82.34896Q380.45312 81.91146 380.0625 81.59896Q379.6875 81.270836 379.125 81.270836Q378.53125 81.270836 378.1875 81.53646Q377.85938 81.78646 377.85938 82.19271Q377.85938 82.583336 378.17188 82.78646Q378.48438 82.989586 379.29688 83.177086Q380.10938 83.34896 380.60938 83.59896Q381.10938 83.84896 381.34375 84.208336Q381.59375 84.56771 381.59375 85.06771Q381.59375 85.927086 380.90625 86.44271Q380.23438 86.958336 379.15625 86.958336Q378.39062 86.958336 377.79688 86.69271Q377.21875 86.41146 376.89062 85.927086Q376.5625 85.44271 376.5625 84.88021L377.64062 84.88021Q377.67188 85.427086 378.07812 85.75521Q378.48438 86.06771 379.15625 86.06771Q379.76562 86.06771 380.14062 85.81771Q380.51562 85.56771 380.51562 85.145836ZM386.51562 85.145836Q386.51562 84.708336 386.17188 84.47396Q385.84375 84.22396 385.01562 84.052086Q384.20312 83.88021 383.71875 83.63021Q383.23438 83.38021 383.0 83.052086Q382.78125 82.708336 382.78125 82.239586Q382.78125 81.458336 383.4375 80.927086Q384.09375 80.38021 385.125 80.38021Q386.20312 80.38021 386.85938 80.94271Q387.53125 81.489586 387.53125 82.34896L386.45312 82.34896Q386.45312 81.91146 386.0625 81.59896Q385.6875 81.270836 385.125 81.270836Q384.53125 81.270836 384.1875 81.53646Q383.85938 81.78646 383.85938 82.19271Q383.85938 82.583336 384.17188 82.78646Q384.48438 82.989586 385.29688 83.177086Q386.10938 83.34896 386.60938 83.59896Q387.10938 83.84896 387.34375 84.208336Q387.59375 84.56771 387.59375 85.06771Q387.59375 85.927086 386.90625 86.44271Q386.23438 86.958336 385.15625 86.958336Q384.39062 86.958336 383.79688 86.69271Q383.21875 86.41146 382.89062 85.927086Q382.5625 85.44271 382.5625 84.88021L383.64062 84.88021Q383.67188 85.427086 384.07812 85.75521Q384.48438 86.06771 385.15625 86.06771Q385.76562 86.06771 386.14062 85.81771Q386.51562 85.56771 386.51562 85.145836Z" fill-rule="nonzero"/><path fill="#92013b" d="M416.0 82.333336C416.0 85.64704 413.31372 88.333336 410.0 88.333336C406.68628 88.333336 404.0 85.64704 404.0 82.333336C404.0 79.01962 406.68628 76.333336 410.0 76.333336C413.31372 76.333336 416.0 79.01962 416.0 82.333336Z" fill-rule="nonzero"/><path fill="#757575" d="M429.8125 82.895836L426.10938 82.895836L426.10938 85.91146L430.40625 85.91146L430.40625 86.833336L424.98438 86.833336L424.98438 78.302086L430.35938 78.302086L430.35938 79.22396L426.10938 79.22396L426.10938 81.97396L429.8125 81.97396L429.8125 82.895836ZM433.0 86.833336L431.92188 86.833336L431.92188 77.833336L433.0 77.833336L433.0 86.833336ZM437.45312 86.958336Q436.15625 86.958336 435.34375 86.114586Q434.54688 85.25521 434.54688 83.833336L434.54688 83.645836Q434.54688 82.69271 434.90625 81.958336Q435.26562 81.208336 435.90625 80.802086Q436.5625 80.38021 437.3125 80.38021Q438.54688 80.38021 439.23438 81.19271Q439.92188 82.00521 439.92188 83.520836L439.92188 83.97396L435.625 83.97396Q435.65625 84.91146 436.17188 85.489586Q436.70312 86.06771 437.51562 86.06771Q438.07812 86.06771 438.46875 85.833336Q438.875 85.59896 439.1875 85.208336L439.84375 85.72396Q439.04688 86.958336 437.45312 86.958336ZM437.3125 81.270836Q436.65625 81.270836 436.20312 81.75521Q435.76562 82.22396 435.67188 83.083336L438.84375 83.083336L438.84375 83.00521Q438.79688 82.177086 438.39062 81.72396Q438.0 81.270836 437.3125 81.270836ZM441.84375 80.489586L441.875 81.19271Q442.5625 80.38021 443.75 80.38021Q445.07812 80.38021 445.5625 81.395836Q445.875 80.94271 446.375 80.66146Q446.89062 80.38021 447.57812 80.38021Q449.67188 80.38021 449.70312 82.583336L449.70312 86.833336L448.625 86.833336L448.625 82.645836Q448.625 81.97396 448.3125 81.645836Q448.0 81.302086 447.26562 81.302086Q446.65625 81.302086 446.25 81.66146Q445.85938 82.020836 445.79688 82.63021L445.79688 86.833336L444.71875 86.833336L444.71875 82.677086Q444.71875 81.302086 443.35938 81.302086Q442.29688 81.302086 441.90625 82.208336L441.90625 86.833336L440.8125 86.833336L440.8125 80.489586L441.84375 80.489586ZM454.45312 86.958336Q453.15625 86.958336 452.34375 86.114586Q451.54688 85.25521 451.54688 83.833336L451.54688 83.645836Q451.54688 82.69271 451.90625 81.958336Q452.26562 81.208336 452.90625 80.802086Q453.5625 80.38021 454.3125 80.38021Q455.54688 80.38021 456.23438 81.19271Q456.92188 82.00521 456.92188 83.520836L456.92188 83.97396L452.625 83.97396Q452.65625 84.91146 453.17188 85.489586Q453.70312 86.06771 454.51562 86.06771Q455.07812 86.06771 455.46875 85.833336Q455.875 85.59896 456.1875 85.208336L456.84375 85.72396Q456.04688 86.958336 454.45312 86.958336ZM454.3125 81.270836Q453.65625 81.270836 453.20312 81.75521Q452.76562 82.22396 452.67188 83.083336L455.84375 83.083336L455.84375 83.00521Q455.79688 82.177086 455.39062 81.72396Q455.0 81.270836 454.3125 81.270836ZM458.84375 80.489586L458.875 81.28646Q459.60938 80.38021 460.78125 80.38021Q462.79688 80.38021 462.8125 82.645836L462.8125 86.833336L461.71875 86.833336L461.71875 82.63021Q461.71875 81.958336 461.40625 81.63021Q461.10938 81.302086 460.45312 81.302086Q459.92188 81.302086 459.51562 81.583336Q459.125 81.864586 458.90625 82.31771L458.90625 86.833336L457.82812 86.833336L457.82812 80.489586L458.84375 80.489586ZM466.29688 78.958336L466.29688 80.489586L467.46875 80.489586L467.46875 81.333336L466.29688 81.333336L466.29688 85.25521Q466.29688 85.645836 466.45312 85.833336Q466.60938 86.020836 466.98438 86.020836Q467.17188 86.020836 467.5 85.958336L467.5 86.833336Q467.07812 86.958336 466.67188 86.958336Q465.95312 86.958336 465.57812 86.520836Q465.20312 86.06771 465.20312 85.25521L465.20312 81.333336L464.04688 81.333336L464.04688 80.489586L465.20312 80.489586L465.20312 78.958336L466.29688 78.958336ZM468.53125 83.59896Q468.53125 82.677086 468.89062 81.927086Q469.26562 81.177086 469.92188 80.78646Q470.57812 80.38021 471.40625 80.38021Q472.70312 80.38021 473.5 81.270836Q474.3125 82.16146 474.3125 83.66146L474.3125 83.739586Q474.3125 84.66146 473.95312 85.395836Q473.59375 86.13021 472.9375 86.552086Q472.28125 86.958336 471.42188 86.958336Q470.14062 86.958336 469.32812 86.06771Q468.53125 85.16146 468.53125 83.677086L468.53125 83.59896ZM469.625 83.739586Q469.625 84.78646 470.10938 85.427086Q470.60938 86.06771 471.42188 86.06771Q472.25 86.06771 472.73438 85.427086Q473.21875 84.770836 473.21875 83.59896Q473.21875 82.56771 472.71875 81.927086Q472.23438 81.270836 471.40625 81.270836Q470.60938 81.270836 470.10938 81.91146Q469.625 82.53646 469.625 83.739586ZM478.89062 81.458336Q478.64062 81.427086 478.35938 81.427086Q477.28125 81.427086 476.90625 82.333336L476.90625 86.833336L475.82812 86.833336L475.82812 80.489586L476.875 80.489586L476.89062 81.22396Q477.42188 80.38021 478.40625 80.38021Q478.71875 80.38021 478.89062 80.458336L478.89062 81.458336Z" fill-rule="nonzero"/><path fill="#58bb8a" d="M507.0 82.333336C507.0 85.64704 504.31372 88.333336 501.0 88.333336C497.68628 88.333336 495.0 85.64704 495.0 82.333336C495.0 79.01962 497.68628 76.333336 501.0 76.333336C504.31372 76.333336 507.0 79.01962 507.0 82.333336Z" fill-rule="nonzero"/><path fill="#757575" d="M517.8281 84.145836L518.0 85.270836L518.2344 84.25521L519.9219 78.302086L520.875 78.302086L522.5156 84.25521L522.75 85.28646L522.9375 84.13021L524.2656 78.302086L525.3906 78.302086L523.3281 86.833336L522.2969 86.833336L520.53125 80.614586L520.40625 79.958336L520.2656 80.614586L518.4531 86.833336L517.4219 86.833336L515.3594 78.302086L516.4844 78.302086L517.8281 84.145836ZM526.53125 83.59896Q526.53125 82.677086 526.8906 81.927086Q527.2656 81.177086 527.9219 80.78646Q528.5781 80.38021 529.40625 80.38021Q530.7031 80.38021 531.5 81.270836Q532.3125 82.16146 532.3125 83.66146L532.3125 83.739586Q532.3125 84.66146 531.9531 85.395836Q531.59375 86.13021 530.9375 86.552086Q530.28125 86.958336 529.4219 86.958336Q528.1406 86.958336 527.3281 86.06771Q526.53125 85.16146 526.53125 83.677086L526.53125 83.59896ZM527.625 83.739586Q527.625 84.78646 528.1094 85.427086Q528.6094 86.06771 529.4219 86.06771Q530.25 86.06771 530.7344 85.427086Q531.21875 84.770836 531.21875 83.59896Q531.21875 82.56771 530.71875 81.927086Q530.2344 81.270836 529.40625 81.270836Q528.6094 81.270836 528.1094 81.91146Q527.625 82.53646 527.625 83.739586ZM536.8906 81.458336Q536.6406 81.427086 536.3594 81.427086Q535.28125 81.427086 534.90625 82.333336L534.90625 86.833336L533.8281 86.833336L533.8281 80.489586L534.875 80.489586L534.8906 81.22396Q535.4219 80.38021 536.40625 80.38021Q536.71875 80.38021 536.8906 80.458336L536.8906 81.458336ZM537.5625 83.614586Q537.5625 82.145836 538.25 81.270836Q538.9375 80.38021 540.0625 80.38021Q541.1719 80.38021 541.8281 81.13021L541.8281 77.833336L542.90625 77.833336L542.90625 86.833336L541.90625 86.833336L541.8594 86.145836Q541.2031 86.958336 540.0469 86.958336Q538.9531 86.958336 538.25 86.052086Q537.5625 85.145836 537.5625 83.69271L537.5625 83.614586ZM538.6406 83.739586Q538.6406 84.81771 539.0781 85.427086Q539.53125 86.03646 540.3125 86.03646Q541.34375 86.03646 541.8281 85.09896L541.8281 82.19271Q541.34375 81.302086 540.3281 81.302086Q539.53125 81.302086 539.0781 81.91146Q538.6406 82.520836 538.6406 83.739586ZM546.1094 83.489586L546.1094 86.833336L544.9844 86.833336L544.9844 78.302086L548.1406 78.302086Q549.53125 78.302086 550.3281 79.020836Q551.125 79.72396 551.125 80.91146Q551.125 82.145836 550.34375 82.81771Q549.5781 83.489586 548.125 83.489586L546.1094 83.489586ZM546.1094 82.56771L548.1406 82.56771Q549.0469 82.56771 549.5156 82.145836Q550.0 81.72396 550.0 80.927086Q550.0 80.16146 549.5156 79.708336Q549.0469 79.239586 548.2031 79.22396L546.1094 79.22396L546.1094 82.56771ZM555.8906 81.458336Q555.6406 81.427086 555.3594 81.427086Q554.28125 81.427086 553.90625 82.333336L553.90625 86.833336L552.8281 86.833336L552.8281 80.489586L553.875 80.489586L553.8906 81.22396Q554.4219 80.38021 555.40625 80.38021Q555.71875 80.38021 555.8906 80.458336L555.8906 81.458336ZM559.4531 86.958336Q558.15625 86.958336 557.34375 86.114586Q556.5469 85.25521 556.5469 83.833336L556.5469 83.645836Q556.5469 82.69271 556.90625 81.958336Q557.2656 81.208336 557.90625 80.802086Q558.5625 80.38021 559.3125 80.38021Q560.5469 80.38021 561.2344 81.19271Q561.9219 82.00521 561.9219 83.520836L561.9219 83.97396L557.625 83.97396Q557.65625 84.91146 558.1719 85.489586Q558.7031 86.06771 559.5156 86.06771Q560.0781 86.06771 560.46875 85.833336Q560.875 85.59896 561.1875 85.208336L561.84375 85.72396Q561.0469 86.958336 559.4531 86.958336ZM559.3125 81.270836Q558.65625 81.270836 558.2031 81.75521Q557.7656 82.22396 557.6719 83.083336L560.84375 83.083336L560.84375 83.00521Q560.7969 82.177086 560.3906 81.72396Q560.0 81.270836 559.3125 81.270836ZM566.5156 85.145836Q566.5156 84.708336 566.1719 84.47396Q565.84375 84.22396 565.0156 84.052086Q564.2031 83.88021 563.71875 83.63021Q563.2344 83.38021 563.0 83.052086Q562.78125 82.708336 562.78125 82.239586Q562.78125 81.458336 563.4375 80.927086Q564.09375 80.38021 565.125 80.38021Q566.2031 80.38021 566.8594 80.94271Q567.53125 81.489586 567.53125 82.34896L566.4531 82.34896Q566.4531 81.91146 566.0625 81.59896Q565.6875 81.270836 565.125 81.270836Q564.53125 81.270836 564.1875 81.53646Q563.8594 81.78646 563.8594 82.19271Q563.8594 82.583336 564.1719 82.78646Q564.4844 82.989586 565.2969 83.177086Q566.1094 83.34896 566.6094 83.59896Q567.1094 83.84896 567.34375 84.208336Q567.59375 84.56771 567.59375 85.06771Q567.59375 85.927086 566.90625 86.44271Q566.2344 86.958336 565.15625 86.958336Q564.3906 86.958336 563.7969 86.69271Q563.21875 86.41146 562.8906 85.927086Q562.5625 85.44271 562.5625 84.88021L563.6406 84.88021Q563.6719 85.427086 564.0781 85.75521Q564.4844 86.06771 565.15625 86.06771Q565.7656 86.06771 566.1406 85.81771Q566.5156 85.56771 566.5156 85.145836ZM572.5156 85.145836Q572.5156 84.708336 572.1719 84.47396Q571.84375 84.22396 571.0156 84.052086Q570.2031 83.88021 569.71875 83.63021Q569.2344 83.38021 569.0 83.052086Q568.78125 82.708336 568.78125 82.239586Q568.78125 81.458336 569.4375 80.927086Q570.09375 80.38021 571.125 80.38021Q572.2031 80.38021 572.8594 80.94271Q573.53125 81.489586 573.53125 82.34896L572.4531 82.34896Q572.4531 81.91146 572.0625 81.59896Q571.6875 81.270836 571.125 81.270836Q570.53125 81.270836 570.1875 81.53646Q569.8594 81.78646 569.8594 82.19271Q569.8594 82.583336 570.1719 82.78646Q570.4844 82.989586 571.2969 83.177086Q572.1094 83.34896 572.6094 83.59896Q573.1094 83.84896 573.34375 84.208336Q573.59375 84.56771 573.59375 85.06771Q573.59375 85.927086 572.90625 86.44271Q572.2344 86.958336 571.15625 86.958336Q570.3906 86.958336 569.7969 86.69271Q569.21875 86.41146 568.8906 85.927086Q568.5625 85.44271 568.5625 84.88021L569.6406 84.88021Q569.6719 85.427086 570.0781 85.75521Q570.4844 86.06771 571.15625 86.06771Q571.7656 86.06771 572.1406 85.81771Q572.5156 85.56771 572.5156 85.145836ZM583.4375 85.333336L584.65625 80.489586L585.7344 80.489586L583.8906 86.833336L583.0156 86.833336L581.46875 82.020836L579.96875 86.833336L579.09375 86.833336L577.25 80.489586L578.3281 80.489586L579.5781 85.239586L581.0625 80.489586L581.9219 80.489586L583.4375 85.333336ZM588.0 86.833336L586.9219 86.833336L586.9219 80.489586L588.0 80.489586L588.0 86.833336ZM586.8281 78.81771Q586.8281 78.552086 586.9844 78.364586Q587.15625 78.177086 587.46875 78.177086Q587.78125 78.177086 587.9375 78.364586Q588.1094 78.552086 588.1094 78.81771Q588.1094 79.06771 587.9375 79.25521Q587.78125 79.427086 587.46875 79.427086Q587.15625 79.427086 586.9844 79.25521Q586.8281 79.06771 586.8281 78.81771ZM591.2969 78.958336L591.2969 80.489586L592.46875 80.489586L592.46875 81.333336L591.2969 81.333336L591.2969 85.25521Q591.2969 85.645836 591.4531 85.833336Q591.6094 86.020836 591.9844 86.020836Q592.1719 86.020836 592.5 85.958336L592.5 86.833336Q592.0781 86.958336 591.6719 86.958336Q590.9531 86.958336 590.5781 86.520836Q590.2031 86.06771 590.2031 85.25521L590.2031 81.333336L589.0469 81.333336L589.0469 80.489586L590.2031 80.489586L590.2031 78.958336L591.2969 78.958336ZM594.90625 81.25521Q595.625 80.38021 596.78125 80.38021Q598.7969 80.38021 598.8125 82.645836L598.8125 86.833336L597.71875 86.833336L597.71875 82.63021Q597.71875 81.958336 597.40625 81.63021Q597.1094 81.302086 596.4531 81.302086Q595.9219 81.302086 595.5156 81.583336Q595.125 81.864586 594.90625 82.31771L594.90625 86.833336L593.8281 86.833336L593.8281 77.833336L594.90625 77.833336L594.90625 81.25521ZM600.53125 83.59896Q600.53125 82.677086 600.8906 81.927086Q601.2656 81.177086 601.9219 80.78646Q602.5781 80.38021 603.40625 80.38021Q604.7031 80.38021 605.5 81.270836Q606.3125 82.16146 606.3125 83.66146L606.3125 83.739586Q606.3125 84.66146 605.9531 85.395836Q605.59375 86.13021 604.9375 86.552086Q604.28125 86.958336 603.4219 86.958336Q602.1406 86.958336 601.3281 86.06771Q600.53125 85.16146 600.53125 83.677086L600.53125 83.59896ZM601.625 83.739586Q601.625 84.78646 602.1094 85.427086Q602.6094 86.06771 603.4219 86.06771Q604.25 86.06771 604.7344 85.427086Q605.21875 84.770836 605.21875 83.59896Q605.21875 82.56771 604.71875 81.927086Q604.2344 81.270836 603.40625 81.270836Q602.6094 81.270836 602.1094 81.91146Q601.625 82.53646 601.625 83.739586ZM611.7344 86.208336Q611.1094 86.958336 609.875 86.958336Q608.8594 86.958336 608.3281 86.364586Q607.7969 85.770836 607.7969 84.614586L607.7969 80.489586L608.875 80.489586L608.875 84.583336Q608.875 86.03646 610.0469 86.03646Q611.2969 86.03646 611.7031 85.09896L611.7031 80.489586L612.7969 80.489586L612.7969 86.833336L611.7656 86.833336L611.7344 86.208336ZM616.2969 78.958336L616.2969 80.489586L617.46875 80.489586L617.46875 81.333336L616.2969 81.333336L616.2969 85.25521Q616.2969 85.645836 616.4531 85.833336Q616.6094 86.020836 616.9844 86.020836Q617.1719 86.020836 617.5 85.958336L617.5 86.833336Q617.0781 86.958336 616.6719 86.958336Q615.9531 86.958336 615.5781 86.520836Q615.2031 86.06771 615.2031 85.25521L615.2031 81.333336L614.0469 81.333336L614.0469 80.489586L615.2031 80.489586L615.2031 78.958336L616.2969 78.958336ZM626.8125 82.895836L623.1094 82.895836L623.1094 85.91146L627.40625 85.91146L627.40625 86.833336L621.9844 86.833336L621.9844 78.302086L627.3594 78.302086L627.3594 79.22396L623.1094 79.22396L623.1094 81.97396L626.8125 81.97396L626.8125 82.895836ZM630.0 86.833336L628.9219 86.833336L628.9219 77.833336L630.0 77.833336L630.0 86.833336ZM634.4531 86.958336Q633.15625 86.958336 632.34375 86.114586Q631.5469 85.25521 631.5469 83.833336L631.5469 83.645836Q631.5469 82.69271 631.90625 81.958336Q632.2656 81.208336 632.90625 80.802086Q633.5625 80.38021 634.3125 80.38021Q635.5469 80.38021 636.2344 81.19271Q636.9219 82.00521 636.9219 83.520836L636.9219 83.97396L632.625 83.97396Q632.65625 84.91146 633.1719 85.489586Q633.7031 86.06771 634.5156 86.06771Q635.0781 86.06771 635.46875 85.833336Q635.875 85.59896 636.1875 85.208336L636.84375 85.72396Q636.0469 86.958336 634.4531 86.958336ZM634.3125 81.270836Q633.65625 81.270836 633.2031 81.75521Q632.7656 82.22396 632.6719 83.083336L635.84375 83.083336L635.84375 83.00521Q635.7969 82.177086 635.3906 81.72396Q635.0 81.270836 634.3125 81.270836ZM638.84375 80.489586L638.875 81.19271Q639.5625 80.38021 640.75 80.38021Q642.0781 80.38021 642.5625 81.395836Q642.875 80.94271 643.375 80.66146Q643.8906 80.38021 644.5781 80.38021Q646.6719 80.38021 646.7031 82.583336L646.7031 86.833336L645.625 86.833336L645.625 82.645836Q645.625 81.97396 645.3125 81.645836Q645.0 81.302086 644.2656 81.302086Q643.65625 81.302086 643.25 81.66146Q642.8594 82.020836 642.7969 82.63021L642.7969 86.833336L641.71875 86.833336L641.71875 82.677086Q641.71875 81.302086 640.3594 81.302086Q639.2969 81.302086 638.90625 82.208336L638.90625 86.833336L637.8125 86.833336L637.8125 80.489586L638.84375 80.489586ZM651.4531 86.958336Q650.15625 86.958336 649.34375 86.114586Q648.5469 85.25521 648.5469 83.833336L648.5469 83.645836Q648.5469 82.69271 648.90625 81.958336Q649.2656 81.208336 649.90625 80.802086Q650.5625 80.38021 651.3125 80.38021Q652.5469 80.38021 653.2344 81.19271Q653.9219 82.00521 653.9219 83.520836L653.9219 83.97396L649.625 83.97396Q649.65625 84.91146 650.1719 85.489586Q650.7031 86.06771 651.5156 86.06771Q652.0781 86.06771 652.46875 85.833336Q652.875 85.59896 653.1875 85.208336L653.84375 85.72396Q653.0469 86.958336 651.4531 86.958336ZM651.3125 81.270836Q650.65625 81.270836 650.2031 81.75521Q649.7656 82.22396 649.6719 83.083336L652.84375 83.083336L652.84375 83.00521Q652.7969 82.177086 652.3906 81.72396Q652.0 81.270836 651.3125 81.270836ZM655.84375 80.489586L655.875 81.28646Q656.6094 80.38021 657.78125 80.38021Q659.7969 80.38021 659.8125 82.645836L659.8125 86.833336L658.71875 86.833336L658.71875 82.63021Q658.71875 81.958336 658.40625 81.63021Q658.1094 81.302086 657.4531 81.302086Q656.9219 81.302086 656.5156 81.583336Q656.125 81.864586 655.90625 82.31771L655.90625 86.833336L654.8281 86.833336L654.8281 80.489586L655.84375 80.489586ZM663.2969 78.958336L663.2969 80.489586L664.46875 80.489586L664.46875 81.333336L663.2969 81.333336L663.2969 85.25521Q663.2969 85.645836 663.4531 85.833336Q663.6094 86.020836 663.9844 86.020836Q664.1719 86.020836 664.5 85.958336L664.5 86.833336Q664.0781 86.958336 663.6719 86.958336Q662.9531 86.958336 662.5781 86.520836Q662.2031 86.06771 662.2031 85.25521L662.2031 81.333336L661.0469 81.333336L661.0469 80.489586L662.2031 80.489586L662.2031 78.958336L663.2969 78.958336ZM665.53125 83.59896Q665.53125 82.677086 665.8906 81.927086Q666.2656 81.177086 666.9219 80.78646Q667.5781 80.38021 668.40625 80.38021Q669.7031 80.38021 670.5 81.270836Q671.3125 82.16146 671.3125 83.66146L671.3125 83.739586Q671.3125 84.66146 670.9531 85.395836Q670.59375 86.13021 669.9375 86.552086Q669.28125 86.958336 668.4219 86.958336Q667.1406 86.958336 666.3281 86.06771Q665.53125 85.16146 665.53125 83.677086L665.53125 83.59896ZM666.625 83.739586Q666.625 84.78646 667.1094 85.427086Q667.6094 86.06771 668.4219 86.06771Q669.25 86.06771 669.7344 85.427086Q670.21875 84.770836 670.21875 83.59896Q670.21875 82.56771 669.71875 81.927086Q669.2344 81.270836 668.40625 81.270836Q667.6094 81.270836 667.1094 81.91146Q666.625 82.53646 666.625 83.739586ZM675.8906 81.458336Q675.6406 81.427086 675.3594 81.427086Q674.28125 81.427086 673.90625 82.333336L673.90625 86.833336L672.8281 86.833336L672.8281 80.489586L673.875 80.489586L673.8906 81.22396Q674.4219 80.38021 675.40625 80.38021Q675.71875 80.38021 675.8906 80.458336L675.8906 81.458336Z" fill-rule="nonzero"/><path fill="#757575" d="M35.21875 45.015625L35.484375 46.890625L35.890625 45.203125L38.703125 35.28125L40.28125 35.28125L43.03125 45.203125L43.421875 46.921875L43.71875 45.0L45.9375 35.28125L47.8125 35.28125L44.375 49.5L42.65625 49.5L39.734375 39.140625L39.5 38.046875L39.28125 39.140625L36.25 49.5L34.53125 49.5L31.09375 35.28125L32.96875 35.28125L35.21875 45.015625ZM49.390625 44.125Q49.390625 42.5625 50.0 41.328125Q50.609375 40.078125 51.6875 39.40625Q52.78125 38.734375 54.1875 38.734375Q56.34375 38.734375 57.671875 40.234375Q59.015625 41.71875 59.015625 44.203125L59.015625 44.328125Q59.015625 45.875 58.421875 47.109375Q57.828125 48.328125 56.71875 49.015625Q55.625 49.703125 54.203125 49.703125Q52.0625 49.703125 50.71875 48.203125Q49.390625 46.703125 49.390625 44.25L49.390625 44.125ZM51.203125 44.328125Q51.203125 46.09375 52.015625 47.15625Q52.84375 48.21875 54.203125 48.21875Q55.578125 48.21875 56.390625 47.140625Q57.203125 46.0625 57.203125 44.125Q57.203125 42.375 56.375 41.296875Q55.546875 40.21875 54.1875 40.21875Q52.84375 40.21875 52.015625 41.28125Q51.203125 42.34375 51.203125 44.328125ZM65.96875 40.546875Q65.5625 40.484375 65.09375 40.484375Q63.3125 40.484375 62.671875 42.0L62.671875 49.5L60.875 49.5L60.875 38.9375L62.625 38.9375L62.65625 40.15625Q63.546875 38.734375 65.171875 38.734375Q65.703125 38.734375 65.96875 38.875L65.96875 40.546875ZM67.421875 44.125Q67.421875 41.703125 68.578125 40.21875Q69.734375 38.734375 71.59375 38.734375Q73.453125 38.734375 74.53125 40.0L74.53125 34.5L76.34375 34.5L76.34375 49.5L74.6875 49.5L74.59375 48.359375Q73.515625 49.703125 71.578125 49.703125Q69.75 49.703125 68.578125 48.203125Q67.421875 46.6875 67.421875 44.265625L67.421875 44.125ZM69.234375 44.328125Q69.234375 46.125 69.96875 47.140625Q70.71875 48.15625 72.03125 48.15625Q73.75 48.15625 74.53125 46.625L74.53125 41.765625Q73.734375 40.265625 72.046875 40.265625Q70.71875 40.265625 69.96875 41.296875Q69.234375 42.328125 69.234375 44.328125ZM81.03125 43.9375L81.03125 49.5L79.15625 49.5L79.15625 35.28125L84.390625 35.28125Q86.734375 35.28125 88.046875 36.46875Q89.375 37.65625 89.375 39.625Q89.375 41.703125 88.078125 42.828125Q86.78125 43.9375 84.375 43.9375L81.03125 43.9375ZM81.03125 42.40625L84.390625 42.40625Q85.90625 42.40625 86.703125 41.703125Q87.5 40.984375 87.5 39.640625Q87.5 38.375 86.703125 37.625Q85.90625 36.859375 84.5 36.828125L81.03125 36.828125L81.03125 42.40625ZM96.96875 40.546875Q96.5625 40.484375 96.09375 40.484375Q94.3125 40.484375 93.671875 42.0L93.671875 49.5L91.875 49.5L91.875 38.9375L93.625 38.9375L93.65625 40.15625Q94.546875 38.734375 96.171875 38.734375Q96.703125 38.734375 96.96875 38.875L96.96875 40.546875ZM103.25 49.703125Q101.109375 49.703125 99.75 48.296875Q98.40625 46.875 98.40625 44.515625L98.40625 44.171875Q98.40625 42.609375 99.0 41.375Q99.609375 40.140625 100.6875 39.4375Q101.765625 38.734375 103.03125 38.734375Q105.09375 38.734375 106.234375 40.09375Q107.375 41.453125 107.375 43.984375L107.375 44.734375L100.21875 44.734375Q100.25 46.296875 101.125 47.265625Q102.0 48.21875 103.34375 48.21875Q104.3125 48.21875 104.96875 47.828125Q105.640625 47.4375 106.140625 46.796875L107.234375 47.65625Q105.90625 49.703125 103.25 49.703125ZM103.03125 40.21875Q101.9375 40.21875 101.1875 41.015625Q100.453125 41.8125 100.28125 43.25L105.5625 43.25L105.5625 43.109375Q105.484375 41.734375 104.8125 40.984375Q104.15625 40.21875 103.03125 40.21875ZM116.015625 46.703125Q116.015625 45.96875 115.46875 45.5625Q114.921875 45.15625 113.546875 44.859375Q112.171875 44.5625 111.359375 44.15625Q110.5625 43.75 110.171875 43.1875Q109.796875 42.609375 109.796875 41.828125Q109.796875 40.53125 110.890625 39.640625Q111.984375 38.734375 113.703125 38.734375Q115.5 38.734375 116.609375 39.671875Q117.734375 40.59375 117.734375 42.03125L115.90625 42.03125Q115.90625 41.296875 115.28125 40.765625Q114.65625 40.21875 113.703125 40.21875Q112.703125 40.21875 112.140625 40.65625Q111.59375 41.078125 111.59375 41.78125Q111.59375 42.421875 112.109375 42.765625Q112.625 43.09375 113.984375 43.40625Q115.34375 43.703125 116.171875 44.125Q117.015625 44.53125 117.421875 45.125Q117.828125 45.71875 117.828125 46.5625Q117.828125 47.984375 116.6875 48.84375Q115.5625 49.703125 113.75 49.703125Q112.484375 49.703125 111.5 49.25Q110.53125 48.796875 109.96875 48.0Q109.421875 47.1875 109.421875 46.25L111.234375 46.25Q111.28125 47.15625 111.953125 47.6875Q112.640625 48.21875 113.75 48.21875Q114.78125 48.21875 115.390625 47.8125Q116.015625 47.390625 116.015625 46.703125ZM126.015625 46.703125Q126.015625 45.96875 125.46875 45.5625Q124.921875 45.15625 123.546875 44.859375Q122.171875 44.5625 121.359375 44.15625Q120.5625 43.75 120.171875 43.1875Q119.796875 42.609375 119.796875 41.828125Q119.796875 40.53125 120.890625 39.640625Q121.984375 38.734375 123.703125 38.734375Q125.5 38.734375 126.609375 39.671875Q127.734375 40.59375 127.734375 42.03125L125.90625 42.03125Q125.90625 41.296875 125.28125 40.765625Q124.65625 40.21875 123.703125 40.21875Q122.703125 40.21875 122.140625 40.65625Q121.59375 41.078125 121.59375 41.78125Q121.59375 42.421875 122.109375 42.765625Q122.625 43.09375 123.984375 43.40625Q125.34375 43.703125 126.171875 44.125Q127.015625 44.53125 127.421875 45.125Q127.828125 45.71875 127.828125 46.5625Q127.828125 47.984375 126.6875 48.84375Q125.5625 49.703125 123.75 49.703125Q122.484375 49.703125 121.5 49.25Q120.53125 48.796875 119.96875 48.0Q119.421875 47.1875 119.421875 46.25L121.234375 46.25Q121.28125 47.15625 121.953125 47.6875Q122.640625 48.21875 123.75 48.21875Q124.78125 48.21875 125.390625 47.8125Q126.015625 47.390625 126.015625 46.703125ZM138.35938 47.046875L140.96875 38.9375L142.8125 38.9375L139.03125 49.5L137.65625 49.5L133.82812 38.9375L135.67188 38.9375L138.35938 47.046875ZM151.01562 46.703125Q151.01562 45.96875 150.46875 45.5625Q149.92188 45.15625 148.54688 44.859375Q147.17188 44.5625 146.35938 44.15625Q145.5625 43.75 145.17188 43.1875Q144.79688 42.609375 144.79688 41.828125Q144.79688 40.53125 145.89062 39.640625Q146.98438 38.734375 148.70312 38.734375Q150.5 38.734375 151.60938 39.671875Q152.73438 40.59375 152.73438 42.03125L150.90625 42.03125Q150.90625 41.296875 150.28125 40.765625Q149.65625 40.21875 148.70312 40.21875Q147.70312 40.21875 147.14062 40.65625Q146.59375 41.078125 146.59375 41.78125Q146.59375 42.421875 147.10938 42.765625Q147.625 43.09375 148.98438 43.40625Q150.34375 43.703125 151.17188 44.125Q152.01562 44.53125 152.42188 45.125Q152.82812 45.71875 152.82812 46.5625Q152.82812 47.984375 151.6875 48.84375Q150.5625 49.703125 148.75 49.703125Q147.48438 49.703125 146.5 49.25Q145.53125 48.796875 144.96875 48.0Q144.42188 47.1875 144.42188 46.25L146.23438 46.25Q146.28125 47.15625 146.95312 47.6875Q147.64062 48.21875 148.75 48.21875Q149.78125 48.21875 150.39062 47.8125Q151.01562 47.390625 151.01562 46.703125ZM168.1875 42.921875L162.03125 42.921875L162.03125 47.96875L169.1875 47.96875L169.1875 49.5L160.15625 49.5L160.15625 35.28125L169.09375 35.28125L169.09375 36.828125L162.03125 36.828125L162.03125 41.390625L168.1875 41.390625L168.1875 42.921875ZM172.82812 49.5L171.03125 49.5L171.03125 34.5L172.82812 34.5L172.82812 49.5ZM180.25 49.703125Q178.10938 49.703125 176.75 48.296875Q175.40625 46.875 175.40625 44.515625L175.40625 44.171875Q175.40625 42.609375 176.0 41.375Q176.60938 40.140625 177.6875 39.4375Q178.76562 38.734375 180.03125 38.734375Q182.09375 38.734375 183.23438 40.09375Q184.375 41.453125 184.375 43.984375L184.375 44.734375L177.21875 44.734375Q177.25 46.296875 178.125 47.265625Q179.0 48.21875 180.34375 48.21875Q181.3125 48.21875 181.96875 47.828125Q182.64062 47.4375 183.14062 46.796875L184.23438 47.65625Q182.90625 49.703125 180.25 49.703125ZM180.03125 40.21875Q178.9375 40.21875 178.1875 41.015625Q177.45312 41.8125 177.28125 43.25L182.5625 43.25L182.5625 43.109375Q182.48438 41.734375 181.8125 40.984375Q181.15625 40.21875 180.03125 40.21875ZM188.5625 38.9375L188.60938 40.109375Q189.78125 38.734375 191.75 38.734375Q193.96875 38.734375 194.76562 40.4375Q195.29688 39.671875 196.14062 39.203125Q196.98438 38.734375 198.14062 38.734375Q201.60938 38.734375 201.67188 42.421875L201.67188 49.5L199.85938 49.5L199.85938 42.53125Q199.85938 41.390625 199.34375 40.828125Q198.82812 40.265625 197.60938 40.265625Q196.60938 40.265625 195.9375 40.875Q195.28125 41.46875 195.17188 42.484375L195.17188 49.5L193.35938 49.5L193.35938 42.578125Q193.35938 40.265625 191.09375 40.265625Q189.3125 40.265625 188.67188 41.78125L188.67188 49.5L186.85938 49.5L186.85938 38.9375L188.5625 38.9375ZM209.25 49.703125Q207.10938 49.703125 205.75 48.296875Q204.40625 46.875 204.40625 44.515625L204.40625 44.171875Q204.40625 42.609375 205.0 41.375Q205.60938 40.140625 206.6875 39.4375Q207.76562 38.734375 209.03125 38.734375Q211.09375 38.734375 212.23438 40.09375Q213.375 41.453125 213.375 43.984375L213.375 44.734375L206.21875 44.734375Q206.25 46.296875 207.125 47.265625Q208.0 48.21875 209.34375 48.21875Q210.3125 48.21875 210.96875 47.828125Q211.64062 47.4375 212.14062 46.796875L213.23438 47.65625Q211.90625 49.703125 209.25 49.703125ZM209.03125 40.21875Q207.9375 40.21875 207.1875 41.015625Q206.45312 41.8125 206.28125 43.25L211.5625 43.25L211.5625 43.109375Q211.48438 41.734375 210.8125 40.984375Q210.15625 40.21875 209.03125 40.21875ZM217.57812 38.9375L217.64062 40.265625Q218.84375 38.734375 220.79688 38.734375Q224.15625 38.734375 224.17188 42.515625L224.17188 49.5L222.375 49.5L222.375 42.5Q222.35938 41.359375 221.84375 40.8125Q221.34375 40.265625 220.25 40.265625Q219.375 40.265625 218.70312 40.734375Q218.04688 41.203125 217.67188 41.96875L217.67188 49.5L215.875 49.5L215.875 38.9375L217.57812 38.9375ZM229.3125 36.375L229.3125 38.9375L231.29688 38.9375L231.29688 40.328125L229.3125 40.328125L229.3125 46.875Q229.3125 47.515625 229.57812 47.84375Q229.84375 48.15625 230.48438 48.15625Q230.79688 48.15625 231.34375 48.03125L231.34375 49.5Q230.625 49.703125 229.95312 49.703125Q228.75 49.703125 228.125 48.96875Q227.51562 48.234375 227.51562 46.875L227.51562 40.328125L225.59375 40.328125L225.59375 38.9375L227.51562 38.9375L227.51562 36.375L229.3125 36.375ZM233.39062 44.125Q233.39062 42.5625 234.0 41.328125Q234.60938 40.078125 235.6875 39.40625Q236.78125 38.734375 238.1875 38.734375Q240.34375 38.734375 241.67188 40.234375Q243.01562 41.71875 243.01562 44.203125L243.01562 44.328125Q243.01562 45.875 242.42188 47.109375Q241.82812 48.328125 240.71875 49.015625Q239.625 49.703125 238.20312 49.703125Q236.0625 49.703125 234.71875 48.203125Q233.39062 46.703125 233.39062 44.25L233.39062 44.125ZM235.20312 44.328125Q235.20312 46.09375 236.01562 47.15625Q236.84375 48.21875 238.20312 48.21875Q239.57812 48.21875 240.39062 47.140625Q241.20312 46.0625 241.20312 44.125Q241.20312 42.375 240.375 41.296875Q239.54688 40.21875 238.1875 40.21875Q236.84375 40.21875 236.01562 41.28125Q235.20312 42.34375 235.20312 44.328125ZM249.96875 40.546875Q249.5625 40.484375 249.09375 40.484375Q247.3125 40.484375 246.67188 42.0L246.67188 49.5L244.875 49.5L244.875 38.9375L246.625 38.9375L246.65625 40.15625Q247.54688 38.734375 249.17188 38.734375Q249.70312 38.734375 249.96875 38.875L249.96875 40.546875ZM258.5625 38.9375L258.60938 40.109375Q259.78125 38.734375 261.75 38.734375Q263.96875 38.734375 264.76562 40.4375Q265.29688 39.671875 266.14062 39.203125Q266.98438 38.734375 268.14062 38.734375Q271.60938 38.734375 271.67188 42.421875L271.67188 49.5L269.85938 49.5L269.85938 42.53125Q269.85938 41.390625 269.34375 40.828125Q268.82812 40.265625 267.60938 40.265625Q266.60938 40.265625 265.9375 40.875Q265.28125 41.46875 265.17188 42.484375L265.17188 49.5L263.35938 49.5L263.35938 42.578125Q263.35938 40.265625 261.09375 40.265625Q259.3125 40.265625 258.67188 41.78125L258.67188 49.5L256.85938 49.5L256.85938 38.9375L258.5625 38.9375ZM281.39062 49.5Q281.23438 49.1875 281.14062 48.390625Q279.875 49.703125 278.125 49.703125Q276.5625 49.703125 275.5625 48.8125Q274.5625 47.921875 274.5625 46.5625Q274.5625 44.921875 275.8125 44.015625Q277.07812 43.09375 279.34375 43.09375L281.10938 43.09375L281.10938 42.265625Q281.10938 41.3125 280.53125 40.75Q279.96875 40.1875 278.875 40.1875Q277.90625 40.1875 277.25 40.6875Q276.59375 41.171875 276.59375 41.859375L274.78125 41.859375Q274.78125 41.078125 275.34375 40.34375Q275.90625 39.59375 276.85938 39.171875Q277.82812 38.734375 278.98438 38.734375Q280.8125 38.734375 281.84375 39.65625Q282.875 40.5625 282.92188 42.171875L282.92188 47.03125Q282.92188 48.484375 283.28125 49.34375L283.28125 49.5L281.39062 49.5ZM278.39062 48.125Q279.25 48.125 280.0 47.6875Q280.76562 47.25 281.10938 46.546875L281.10938 44.375L279.6875 44.375Q276.375 44.375 276.375 46.3125Q276.375 47.171875 276.9375 47.65625Q277.5 48.125 278.39062 48.125ZM290.96875 40.546875Q290.5625 40.484375 290.09375 40.484375Q288.3125 40.484375 287.67188 42.0L287.67188 49.5L285.875 49.5L285.875 38.9375L287.625 38.9375L287.65625 40.15625Q288.54688 38.734375 290.17188 38.734375Q290.70312 38.734375 290.96875 38.875L290.96875 40.546875ZM295.8125 44.609375L294.6875 45.78125L294.6875 49.5L292.875 49.5L292.875 34.5L294.6875 34.5L294.6875 43.578125L295.65625 42.40625L298.9375 38.9375L301.14062 38.9375L297.03125 43.34375L301.625 49.5L299.5 49.5L295.8125 44.609375ZM307.25 49.703125Q305.10938 49.703125 303.75 48.296875Q302.40625 46.875 302.40625 44.515625L302.40625 44.171875Q302.40625 42.609375 303.0 41.375Q303.60938 40.140625 304.6875 39.4375Q305.76562 38.734375 307.03125 38.734375Q309.09375 38.734375 310.23438 40.09375Q311.375 41.453125 311.375 43.984375L311.375 44.734375L304.21875 44.734375Q304.25 46.296875 305.125 47.265625Q306.0 48.21875 307.34375 48.21875Q308.3125 48.21875 308.96875 47.828125Q309.64062 47.4375 310.14062 46.796875L311.23438 47.65625Q309.90625 49.703125 307.25 49.703125ZM307.03125 40.21875Q305.9375 40.21875 305.1875 41.015625Q304.45312 41.8125 304.28125 43.25L309.5625 43.25L309.5625 43.109375Q309.48438 41.734375 308.8125 40.984375Q308.15625 40.21875 307.03125 40.21875ZM316.3125 36.375L316.3125 38.9375L318.29688 38.9375L318.29688 40.328125L316.3125 40.328125L316.3125 46.875Q316.3125 47.515625 316.57812 47.84375Q316.84375 48.15625 317.48438 48.15625Q317.79688 48.15625 318.34375 48.03125L318.34375 49.5Q317.625 49.703125 316.95312 49.703125Q315.75 49.703125 315.125 48.96875Q314.51562 48.234375 314.51562 46.875L314.51562 40.328125L312.59375 40.328125L312.59375 38.9375L314.51562 38.9375L314.51562 36.375L316.3125 36.375ZM332.01562 46.703125Q332.01562 45.96875 331.46875 45.5625Q330.92188 45.15625 329.54688 44.859375Q328.17188 44.5625 327.35938 44.15625Q326.5625 43.75 326.17188 43.1875Q325.79688 42.609375 325.79688 41.828125Q325.79688 40.53125 326.89062 39.640625Q327.98438 38.734375 329.70312 38.734375Q331.5 38.734375 332.60938 39.671875Q333.73438 40.59375 333.73438 42.03125L331.90625 42.03125Q331.90625 41.296875 331.28125 40.765625Q330.65625 40.21875 329.70312 40.21875Q328.70312 40.21875 328.14062 40.65625Q327.59375 41.078125 327.59375 41.78125Q327.59375 42.421875 328.10938 42.765625Q328.625 43.09375 329.98438 43.40625Q331.34375 43.703125 332.17188 44.125Q333.01562 44.53125 333.42188 45.125Q333.82812 45.71875 333.82812 46.5625Q333.82812 47.984375 332.6875 48.84375Q331.5625 49.703125 329.75 49.703125Q328.48438 49.703125 327.5 49.25Q326.53125 48.796875 325.96875 48.0Q325.42188 47.1875 325.42188 46.25L327.23438 46.25Q327.28125 47.15625 327.95312 47.6875Q328.64062 48.21875 329.75 48.21875Q330.78125 48.21875 331.39062 47.8125Q332.01562 47.390625 332.01562 46.703125ZM337.67188 40.21875Q338.875 38.734375 340.79688 38.734375Q344.15625 38.734375 344.17188 42.515625L344.17188 49.5L342.375 49.5L342.375 42.5Q342.35938 41.359375 341.84375 40.8125Q341.34375 40.265625 340.25 40.265625Q339.375 40.265625 338.70312 40.734375Q338.04688 41.203125 337.67188 41.96875L337.67188 49.5L335.875 49.5L335.875 34.5L337.67188 34.5L337.67188 40.21875ZM353.39062 49.5Q353.23438 49.1875 353.14062 48.390625Q351.875 49.703125 350.125 49.703125Q348.5625 49.703125 347.5625 48.8125Q346.5625 47.921875 346.5625 46.5625Q346.5625 44.921875 347.8125 44.015625Q349.07812 43.09375 351.34375 43.09375L353.10938 43.09375L353.10938 42.265625Q353.10938 41.3125 352.53125 40.75Q351.96875 40.1875 350.875 40.1875Q349.90625 40.1875 349.25 40.6875Q348.59375 41.171875 348.59375 41.859375L346.78125 41.859375Q346.78125 41.078125 347.34375 40.34375Q347.90625 39.59375 348.85938 39.171875Q349.82812 38.734375 350.98438 38.734375Q352.8125 38.734375 353.84375 39.65625Q354.875 40.5625 354.92188 42.171875L354.92188 47.03125Q354.92188 48.484375 355.28125 49.34375L355.28125 49.5L353.39062 49.5ZM350.39062 48.125Q351.25 48.125 352.0 47.6875Q352.76562 47.25 353.10938 46.546875L353.10938 44.375L351.6875 44.375Q348.375 44.375 348.375 46.3125Q348.375 47.171875 348.9375 47.65625Q349.5 48.125 350.39062 48.125ZM362.96875 40.546875Q362.5625 40.484375 362.09375 40.484375Q360.3125 40.484375 359.67188 42.0L359.67188 49.5L357.875 49.5L357.875 38.9375L359.625 38.9375L359.65625 40.15625Q360.54688 38.734375 362.17188 38.734375Q362.70312 38.734375 362.96875 38.875L362.96875 40.546875ZM369.25 49.703125Q367.10938 49.703125 365.75 48.296875Q364.40625 46.875 364.40625 44.515625L364.40625 44.171875Q364.40625 42.609375 365.0 41.375Q365.60938 40.140625 366.6875 39.4375Q367.76562 38.734375 369.03125 38.734375Q371.09375 38.734375 372.23438 40.09375Q373.375 41.453125 373.375 43.984375L373.375 44.734375L366.21875 44.734375Q366.25 46.296875 367.125 47.265625Q368.0 48.21875 369.34375 48.21875Q370.3125 48.21875 370.96875 47.828125Q371.64062 47.4375 372.14062 46.796875L373.23438 47.65625Q371.90625 49.703125 369.25 49.703125ZM369.03125 40.21875Q367.9375 40.21875 367.1875 41.015625Q366.45312 41.8125 366.28125 43.25L371.5625 43.25L371.5625 43.109375Q371.48438 41.734375 370.8125 40.984375Q370.15625 40.21875 369.03125 40.21875ZM380.4375 44.125Q380.4375 41.65625 381.57812 40.203125Q382.71875 38.734375 384.60938 38.734375Q386.54688 38.734375 387.625 40.109375L387.71875 38.9375L389.35938 38.9375L389.35938 49.25Q389.35938 51.296875 388.14062 52.46875Q386.9375 53.65625 384.875 53.65625Q383.73438 53.65625 382.64062 53.171875Q381.54688 52.6875 380.96875 51.828125L381.90625 50.75Q383.07812 52.1875 384.75 52.1875Q386.07812 52.1875 386.8125 51.4375Q387.54688 50.703125 387.54688 49.359375L387.54688 48.4375Q386.46875 49.703125 384.59375 49.703125Q382.73438 49.703125 381.57812 48.203125Q380.4375 46.703125 380.4375 44.125ZM382.25 44.328125Q382.25 46.125 382.98438 47.140625Q383.71875 48.15625 385.03125 48.15625Q386.75 48.15625 387.54688 46.609375L387.54688 41.78125Q386.71875 40.265625 385.0625 40.265625Q383.73438 40.265625 382.98438 41.296875Q382.25 42.328125 382.25 44.328125ZM396.96875 40.546875Q396.5625 40.484375 396.09375 40.484375Q394.3125 40.484375 393.67188 42.0L393.67188 49.5L391.875 49.5L391.875 38.9375L393.625 38.9375L393.65625 40.15625Q394.54688 38.734375 396.17188 38.734375Q396.70312 38.734375 396.96875 38.875L396.96875 40.546875ZM398.39062 44.125Q398.39062 42.5625 399.0 41.328125Q399.60938 40.078125 400.6875 39.40625Q401.78125 38.734375 403.1875 38.734375Q405.34375 38.734375 406.67188 40.234375Q408.01562 41.71875 408.01562 44.203125L408.01562 44.328125Q408.01562 45.875 407.42188 47.109375Q406.82812 48.328125 405.71875 49.015625Q404.625 49.703125 403.20312 49.703125Q401.0625 49.703125 399.71875 48.203125Q398.39062 46.703125 398.39062 44.25L398.39062 44.125ZM400.20312 44.328125Q400.20312 46.09375 401.01562 47.15625Q401.84375 48.21875 403.20312 48.21875Q404.57812 48.21875 405.39062 47.140625Q406.20312 46.0625 406.20312 44.125Q406.20312 42.375 405.375 41.296875Q404.54688 40.21875 403.1875 40.21875Q401.84375 40.21875 401.01562 41.28125Q400.20312 42.34375 400.20312 44.328125ZM419.21875 47.015625L421.25 38.9375L423.0625 38.9375L419.98438 49.5L418.51562 49.5L415.95312 41.484375L413.45312 49.5L411.98438 49.5L408.92188 38.9375L410.71875 38.9375L412.79688 46.84375L415.26562 38.9375L416.71875 38.9375L419.21875 47.015625ZM427.3125 36.375L427.3125 38.9375L429.29688 38.9375L429.29688 40.328125L427.3125 40.328125L427.3125 46.875Q427.3125 47.515625 427.57812 47.84375Q427.84375 48.15625 428.48438 48.15625Q428.79688 48.15625 429.34375 48.03125L429.34375 49.5Q428.625 49.703125 427.95312 49.703125Q426.75 49.703125 426.125 48.96875Q425.51562 48.234375 425.51562 46.875L425.51562 40.328125L423.59375 40.328125L423.59375 38.9375L425.51562 38.9375L425.51562 36.375L427.3125 36.375ZM433.67188 40.21875Q434.875 38.734375 436.79688 38.734375Q440.15625 38.734375 440.17188 42.515625L440.17188 49.5L438.375 49.5L438.375 42.5Q438.35938 41.359375 437.84375 40.8125Q437.34375 40.265625 436.25 40.265625Q435.375 40.265625 434.70312 40.734375Q434.04688 41.203125 433.67188 41.96875L433.67188 49.5L431.875 49.5L431.875 34.5L433.67188 34.5L433.67188 40.21875Z" fill-rule="nonzero"/></svg>